<?xml version="1.0" encoding="UTF-8"?>
<svg viewBox="0 0 577 433" xmlns="http://www.w3.org/2000/svg">
<path d="M246.688 89.375 249 90c1.395 4.449.108 7.732-1.375 12l-.822 2.424c-2 5.721-4.4 11.164-6.99 16.638-5.968 12.734-10.055 26.133-14.37 39.49a2574.147 2574.147 0 0 1-6.721 20.4c-.706 2.123-1.406 4.249-2.106 6.375l-1.304 3.93-1.136 3.443c-1.252 3.513-2.674 6.888-4.176 10.3l9 2v2l1.871.797c3.6 2.034 4.774 5.474 6.129 9.203 1.837 6.898 3.007 13.875 4 20.938 1.047 7.626 1.047 7.626 5 14.062 5.018.446 9.446.35 14-2v-2a374.925 374.925 0 0 1 6-4l1-2h2l.82-1.79c1.164-2.18 2.401-3.76 4.055-5.585 2.005-2.264 3.765-4.503 5.375-7.063L271 227h2l.445-1.773c9.787-37.459 9.787-37.459 18.555-46.227 3.625-.125 3.625-.125 7 0v2h2c3.079 12.316-5.586 26.076-11.703 36.305L288 219h-2l-.387 1.797C285 223 285 223 283.188 226.25c-5.456 10.73-9.06 26.842-6.57 38.688.845 2.714.845 2.714 2.382 6.062 7.18.604 12.01.137 18.125-3.809C299 266 299 266 302 265v-2c1.68-1.727 1.68-1.727 3.875-3.625l2.18-1.914C310 256 310 256 312 256l.715-1.715c1.58-2.808 3.512-4.629 5.848-6.847 7.551-7.422 13.933-15.653 20.25-24.125l1.382-1.835c4.029-5.482 7.359-11.279 9.243-17.853 1.604-5.087 3.726-11.79 7.562-15.625 2.938-.25 2.938-.25 6 0 2.168 3.252 2.316 4.63 1.746 8.414-1.943 6.735-5.66 13.267-9.371 19.172-7.053 12.383-6.798 32.888-4.238 46.488 1.141 2.547 2.484 3.511 4.863 4.926 5.537.852 8.628-.533 13.074-3.555a109.986 109.986 0 0 0 5.301-4.257C377 257 377 257 379 257l.563-2c2.045-4.27 5.009-7.742 8.437-11h2v-2h2l.797-2.23c1.208-2.782 2.549-4.736 4.453-7.083l1.875-2.398C401 228 401 228 402.688 226.273c5.264-5.764 5.634-12.467 6.671-19.91 1.075-7.708 3.04-15.003 7.641-21.363 2.75-.938 2.75-.938 5-1 3.154 4.227 3.364 7.666 2.938 12.75l-.157 2.145c-.642 7.015-2.895 12.276-6.781 18.105-1.108 8.262.966 16.054 3 24 .345 1.664.683 3.33 1 5h2v2c8.647 0 13.658-3.271 20-9 5.077-5.5 9.506-11.52 13.809-17.637L459 220h2c.962-2.885 1.218-5.052 1.395-8.066 3.443-53.575 3.443-53.575 13.605-66.934 3.375-1.625 3.375-1.625 7-2 5.293 2.595 8.907 6.239 11.082 11.734 4.868 17.317-3.318 34.061-11.508 48.895-2.646 4.616-5.606 8.828-8.98 12.95-3.899 5.924-3.918 12.448-4.094 19.296-.172 6.648-.88 12.662-2.5 19.125.614-.21 1.227-.422 1.86-.64l2.14-.735 2.25-.773L476 252l3.5-1.094c5.762-1.412 11.606-1.119 17.5-1.031l3.504.027c2.832.024 5.664.057 8.496.098v3c-6.78 2.193-13.482 3.737-20.5 4.938-10.678 1.754-10.678 1.754-20.5 6.062-1.985 2.978-2.467 4.548-3.113 7.98l-.586 3.005-.613 3.202c-3.82 18.978-9.164 36.971-20.688 52.813l-2 3h-2l-2 6h-2l-.68 1.777c-3.405 5.733-12.087 9.815-18.355 11.84-3.874.755-7.226.703-10.965-.617-3.817-2.649-6.331-5.691-8.438-9.813-2.3-13.04 2.097-22.041 8.438-33.187l1.219-2.348c3.174-6.08 7.059-11.659 11.781-16.652h2v-2h2l.688-1.688c2.426-4.275 5.745-7.451 10.312-9.312v-2c7.276-6.632 15.433-12.202 24-17 2.169-2.169 1.746-6.736 2.063-9.75l.275-2.46c.427-3.948.783-7.813.662-11.79l-2.555 2.844-3.32 3.656-1.684 1.879-1.62 1.777-1.492 1.65C448 248 448 248 446 248v2c-2.047 1.473-2.047 1.473-4.75 3.063l-2.672 1.597c-4.674 2.43-9.339 3.017-14.578 2.34-6.208-2.525-9.202-5.953-12-12a110.696 110.696 0 0 1-3-10h-2a90.08 90.08 0 0 0-3.5 5 90.08 90.08 0 0 1-3.5 5h-2l-.816 1.746c-1.205 2.293-2.56 4.253-4.122 6.316l-1.527 2.036c-1.431 1.774-2.819 3.4-4.535 4.902h-2l-.754 1.754C379.937 269.52 371.201 274.36 363 277c-5.3 1.066-9.614-.214-14.242-2.8-4.562-3.113-6.4-6.98-7.758-12.2-1.013-5.692-1.12-11.18-1.063-16.938l.014-2.65c.012-2.137.03-4.275.049-6.412l-1.023 1.531-1.352 1.969-1.336 1.969L335 243h-2l-.75 1.688c-1.48 2.736-3.185 4.989-5.25 7.312h-2l-.719 1.703c-1.57 2.816-3.496 4.777-5.781 7.047l-2.406 2.422C314 265 314 265 312 265v2h-2v2c-8.082 7.222-17.87 12.932-29.004 12.316-6.274-.994-9.438-4.437-12.996-9.316-1-3-1.116-4.974-1.098-8.105l.01-2.979.026-3.103.013-3.14c.012-2.557.028-5.115.049-7.673l-1.426 1.898-1.887 2.477-1.863 2.46C260 256 260 256 257 258h-3v2c-6.638 3.796-11.928 5.69-19.688 4.375-5.587-2.32-8.155-5.444-10.437-10.938-2.117-6.24-2.955-12.66-3.749-19.18-.704-5.513-2.04-10.104-4.126-15.257-.353-1.328-.692-2.66-1-4-5.282-1.2-5.282-1.2-10 1-.996 2.363-.996 2.363-1.75 5.188-1.57 5.031-3.477 9.697-5.75 14.437-2.332 4.872-4.52 9.749-6.473 14.785-1.765 4.45-3.698 8.829-5.597 13.223-1.16 2.731-2.25 5.47-3.305 8.242-2.618 6.64-5.96 12.943-9.198 19.295-1.19 2.347-2.337 4.714-3.49 7.08-1.771 3.555-3.718 6.962-5.75 10.375-2.798 4.716-5.285 9.514-7.687 14.438-2.802 5.72-5.841 11.118-9.363 16.437-1.58 2.413-3.017 4.872-4.45 7.375-3.835 6.458-8.556 12.23-13.187 18.125-3.842 5.054-3.842 5.054-7.535 10.215L120 377h-2l-.805 1.754c-3.539 6.65-9.288 12.213-16.195 15.246-3.914 1.003-7.1 1.3-11 0-5.264-8.188-3.781-19.056-1.92-28.205 3.694-16.144 10.453-30.614 18.782-44.847a446.774 446.774 0 0 0 3.165-5.526c2.043-3.543 4.172-7.023 6.348-10.485l1.277-2.033c.933-1.485 1.868-2.97 2.803-4.453 1.084-1.719 2.165-3.44 3.246-5.16 13.49-21.469 13.49-21.469 20.299-30.291l1.824-2.367a895.3 895.3 0 0 1 3.512-4.496c2.154-2.766 4.233-5.583 6.305-8.41 1.36-1.73 2.703-3.276 4.359-4.727h2l.75-1.875c1.487-2.529 2.687-2.843 5.25-4.125l.824-1.781c1.533-2.892 3.53-4.567 5.988-6.719l2.583-2.281a162.934 162.934 0 0 1 5.367-4.375c2.31-1.649 2.31-1.649 3.238-3.844h2v-2a105.24 105.24 0 0 1 4.625-2.375c8.512-4.936 11.09-13.814 13.535-22.887 1.038-3.384 2.408-6.604 3.778-9.863 2.745-6.616 4.567-13.26 6.203-20.223 2.11-8.967 5.229-17.195 8.859-25.652.814-1.979 1.626-3.958 2.438-5.938 2.253-5.427 4.709-10.746 7.23-16.054 1.31-2.96 2.36-5.922 3.332-9.008-6.162 6.017-12.05 12.173-17.313 19L219 125h-2l-.77 1.766c-1.363 2.476-2.872 4.04-4.917 5.984a105.723 105.723 0 0 0-7.383 7.809c-4.321 4.98-8.968 9.63-13.638 14.28a1599.248 1599.248 0 0 0-4.462 4.468 5947.886 5947.886 0 0 1-5.467 5.46C174.826 170 174.826 170 172 170l-.594 1.64c-2.017 3.385-4.91 5.625-7.906 8.11l-1.892 1.59A1020.829 1020.829 0 0 1 156 186c-.53.44-1.058.882-1.604 1.336C146.385 194 146.385 194 144 194v2a102.149 102.149 0 0 1-6.188 4.563l-1.751 1.248c-3.29 2.27-6.033 3.887-10.061 4.189-1-1-1-1-1.313-3.379.313-2.621.313-2.621 2-4.21l2.313-1.349c3.066-1.876 6.02-3.751 8.875-5.937 2.19-1.675 4.39-3.31 6.648-4.895 6.351-4.467 12.045-9.328 17.692-14.628a220.447 220.447 0 0 1 7.035-6.29c4.679-4.056 9.02-8.45 13.293-12.93A98.743 98.743 0 0 1 186 149h2v-2h2v-2h2v-2h2v-2a273.038 273.038 0 0 1 4.21-3.438c2.67-2.33 4.892-4.995 7.177-7.695 1.481-1.715 2.917-3.363 4.613-4.867h2l.73-2.188c1.445-3.2 3.195-5.244 5.583-7.812l2.44-2.64c2.376-2.496 4.811-4.924 7.247-7.36a320.441 320.441 0 0 0 2.688-3.313L233 99h2v-2h2v-2h2l.813-1.875c1.782-3.19 3.211-4.261 6.875-3.75ZM482 152c-7.618 15.313-9.188 32.16-10 49h2c5.285-7.342 8.604-15.333 11-24l.684-2.438c1.692-6.72 2.864-13.372-.684-19.625L483 152h-1Zm-289 70c-11.846 9.883-23.095 20.128-33 32l-2.387 2.793-2.488 2.957-2.305 2.734c-1.67 2.31-2.417 3.737-2.82 6.516h-2c-2.962 3.633-2.962 3.633-4 8h-2c-1.355 1.912-1.355 1.912-2.688 4.375-2.116 3.662-4.332 7.137-6.812 10.563-2.965 4.166-5.395 8.443-7.773 12.964-1.677 3.008-3.485 5.873-5.356 8.76-5.088 7.873-9.105 15.815-12.621 24.497a327.826 327.826 0 0 1-2.184 5.196C96.027 363.105 96.027 363.105 97 384c7.907-1.667 12.22-7.216 16.906-13.344 2.04-2.588 4.204-4.951 6.469-7.344 8.978-9.898 15.582-21.707 22.34-33.17 2.353-3.985 4.762-7.879 7.383-11.693 2.857-4.233 5.025-8.6 7.09-13.262 1.98-4.431 3.888-8.3 6.812-12.187a203.535 203.535 0 0 0 2.196-5.108c1.385-3.259 3.058-6.371 4.679-9.517 3.074-6.048 5.705-12.134 8.05-18.508.919-2.45 1.915-4.806 3.012-7.18 2.22-4.852 4.004-9.855 5.836-14.863 1.368-3.688 2.823-7.214 4.665-10.699.515-1.031 1.03-2.063 1.562-3.125l-1-2Zm255 53-1.95 1.309c-1.72 1.176-3.39 2.43-5.05 3.691v2h-2v2h-2v2l-1.809.832c-13.398 7.141-23.236 26.648-28.351 40.254-1.613 5.596-1.866 10.821.723 16.101 2.345 2.068 2.345 2.068 5.5 2.125 11.202-2.633 20.224-13.82 26.067-23.108 9.104-15.38 16.024-33.229 16.87-51.204-3.228 0-5.44 2.203-8 4Z" fill="#474E55"/>
<path d="M246.688 89.375 249 90c1.395 4.449.108 7.732-1.375 12l-.822 2.424c-2 5.721-4.4 11.164-6.99 16.638-5.968 12.734-10.055 26.133-14.37 39.49a2574.147 2574.147 0 0 1-6.721 20.4c-.706 2.123-1.406 4.249-2.106 6.375l-1.304 3.93-1.136 3.443c-1.252 3.513-2.674 6.888-4.176 10.3l9 2v2l1.871.797c3.6 2.034 4.774 5.474 6.129 9.203 1.837 6.898 3.007 13.875 4 20.938 1.047 7.626 1.047 7.626 5 14.062 5.018.446 9.446.35 14-2v-2a374.925 374.925 0 0 1 6-4l1-2h2l.82-1.79c1.164-2.18 2.401-3.76 4.055-5.585 2.005-2.264 3.765-4.503 5.375-7.063L271 227h2l.445-1.773c1.634-6.255 3.531-12.403 5.555-18.54l.754-2.315c1.442-4.322 3.092-8.34 5.246-12.372h1c-.875 6.875-.875 6.875-2 8-.313 1.84-.621 3.68-.9 5.525-3.107 20.316-3.107 20.316-9.213 25.147L272 232l-.75 2.375c-1.448 3.04-2.383 3.459-5.25 5.063-4.092 2.342-4.618 4.046-6 8.562-1.713 1.734-3.514 3.213-5.441 4.703-1.694 1.233-1.694 1.233-2.559 3.297 2.409-.113 2.409-.113 5-1 1.699-2.498 1.699-2.498 3-5h2l1-4h3v-3c2.5-1.688 2.5-1.688 5-3l-.108 2.475c-.158 3.716-.306 7.433-.454 11.15l-.17 3.895-.147 3.77-.143 3.459c.022 3.227.273 6.111 1.022 9.251 1.952 1.436 1.952 1.436 4 2l-2 2c-4.176-4.819-6.136-7.539-6.098-14.105l.01-2.979.026-3.103.013-3.14c.012-2.557.028-5.115.049-7.673l-1.426 1.898-1.887 2.477-1.863 2.46C260 256 260 256 257 258h-3v2c-6.638 3.796-11.928 5.69-19.688 4.375-5.587-2.32-8.155-5.444-10.437-10.938-2.117-6.24-2.955-12.66-3.749-19.18-.704-5.513-2.04-10.104-4.126-15.257-.353-1.328-.692-2.66-1-4-5.282-1.2-5.282-1.2-10 1-.996 2.363-.996 2.363-1.75 5.188-1.57 5.031-3.477 9.697-5.75 14.437-2.332 4.872-4.52 9.749-6.473 14.785-1.765 4.45-3.698 8.829-5.597 13.223-1.16 2.731-2.25 5.47-3.305 8.242-2.618 6.64-5.96 12.943-9.198 19.295-1.19 2.347-2.337 4.714-3.49 7.08-1.771 3.555-3.718 6.962-5.75 10.375-2.798 4.716-5.285 9.514-7.687 14.438-2.802 5.72-5.841 11.118-9.363 16.437-1.58 2.413-3.017 4.872-4.45 7.375-3.835 6.458-8.556 12.23-13.187 18.125-3.842 5.054-3.842 5.054-7.535 10.215L120 377h-2l-.805 1.754c-3.539 6.65-9.288 12.213-16.195 15.246-3.914 1.003-7.1 1.3-11 0-5.264-8.188-3.781-19.056-1.92-28.205 3.694-16.144 10.453-30.614 18.782-44.847a446.774 446.774 0 0 0 3.165-5.526c2.043-3.543 4.172-7.023 6.348-10.485l1.277-2.033c.933-1.485 1.868-2.97 2.803-4.453 1.084-1.719 2.165-3.44 3.246-5.16 13.49-21.469 13.49-21.469 20.299-30.291l1.824-2.367a895.3 895.3 0 0 1 3.512-4.496c2.154-2.766 4.233-5.583 6.305-8.41 1.36-1.73 2.703-3.276 4.359-4.727h2l.75-1.875c1.487-2.529 2.687-2.843 5.25-4.125l.824-1.781c1.533-2.892 3.53-4.567 5.988-6.719l2.583-2.281a162.934 162.934 0 0 1 5.367-4.375c2.31-1.649 2.31-1.649 3.238-3.844h2v-2a105.24 105.24 0 0 1 4.625-2.375c8.512-4.936 11.09-13.814 13.535-22.887 1.038-3.384 2.408-6.604 3.778-9.863 2.745-6.616 4.567-13.26 6.203-20.223 2.11-8.967 5.229-17.195 8.859-25.652.814-1.979 1.626-3.958 2.438-5.938 2.253-5.427 4.709-10.746 7.23-16.054 1.31-2.96 2.36-5.922 3.332-9.008-6.162 6.017-12.05 12.173-17.313 19L219 125h-2l-.77 1.766c-1.363 2.476-2.872 4.04-4.917 5.984a105.723 105.723 0 0 0-7.383 7.809c-4.321 4.98-8.968 9.63-13.638 14.28a1599.248 1599.248 0 0 0-4.462 4.468 5947.886 5947.886 0 0 1-5.467 5.46C174.826 170 174.826 170 172 170l-.594 1.64c-2.017 3.385-4.91 5.625-7.906 8.11l-1.892 1.59A1020.829 1020.829 0 0 1 156 186c-.53.44-1.058.882-1.604 1.336C146.385 194 146.385 194 144 194v2a102.149 102.149 0 0 1-6.188 4.563l-1.751 1.248c-3.29 2.27-6.033 3.887-10.061 4.189-1-1-1-1-1.313-3.379.313-2.621.313-2.621 2-4.21l2.313-1.349c3.066-1.876 6.02-3.751 8.875-5.937 2.19-1.675 4.39-3.31 6.648-4.895 6.351-4.467 12.045-9.328 17.692-14.628a220.447 220.447 0 0 1 7.035-6.29c4.679-4.056 9.02-8.45 13.293-12.93A98.743 98.743 0 0 1 186 149h2v-2h2v-2h2v-2h2v-2a273.038 273.038 0 0 1 4.21-3.438c2.67-2.33 4.892-4.995 7.177-7.695 1.481-1.715 2.917-3.363 4.613-4.867h2l.73-2.188c1.445-3.2 3.195-5.244 5.583-7.812l2.44-2.64c2.376-2.496 4.811-4.924 7.247-7.36a320.441 320.441 0 0 0 2.688-3.313L233 99h2v-2h2v-2h2l.813-1.875c1.782-3.19 3.211-4.261 6.875-3.75ZM193 222c-11.846 9.883-23.095 20.128-33 32l-2.387 2.793-2.488 2.957-2.305 2.734c-1.67 2.31-2.417 3.737-2.82 6.516h-2c-2.962 3.633-2.962 3.633-4 8h-2c-1.355 1.912-1.355 1.912-2.688 4.375-2.116 3.662-4.332 7.137-6.812 10.563-2.965 4.166-5.395 8.443-7.773 12.964-1.677 3.008-3.485 5.873-5.356 8.76-5.088 7.873-9.105 15.815-12.621 24.497a327.826 327.826 0 0 1-2.184 5.196C96.027 363.105 96.027 363.105 97 384c7.907-1.667 12.22-7.216 16.906-13.344 2.04-2.588 4.204-4.951 6.469-7.344 8.978-9.898 15.582-21.707 22.34-33.17 2.353-3.985 4.762-7.879 7.383-11.693 2.857-4.233 5.025-8.6 7.09-13.262 1.98-4.431 3.888-8.3 6.812-12.187a203.535 203.535 0 0 0 2.196-5.108c1.385-3.259 3.058-6.371 4.679-9.517 3.074-6.048 5.705-12.134 8.05-18.508.919-2.45 1.915-4.806 3.012-7.18 2.22-4.852 4.004-9.855 5.836-14.863 1.368-3.688 2.823-7.214 4.665-10.699.515-1.031 1.03-2.063 1.562-3.125l-1-2Z" fill="#595D64"/>
<path d="m204 212 3 2-2 2a98.808 98.808 0 0 0-1.688 5.188c-1.83 5.71-4.161 10.988-6.742 16.38a183.534 183.534 0 0 0-5.543 12.842c-1.765 4.45-3.698 8.829-5.597 13.223-1.16 2.731-2.25 5.47-3.305 8.242-2.618 6.64-5.96 12.943-9.198 19.295-1.19 2.347-2.337 4.714-3.49 7.08-1.771 3.555-3.718 6.962-5.75 10.375-2.798 4.716-5.285 9.514-7.687 14.438-2.802 5.72-5.841 11.118-9.363 16.437-1.58 2.413-3.017 4.872-4.45 7.375-3.835 6.458-8.556 12.23-13.187 18.125-3.842 5.054-3.842 5.054-7.535 10.215L120 377h-2l-.805 1.754c-3.539 6.65-9.288 12.213-16.195 15.246-3.914 1.003-7.1 1.3-11 0-5.264-8.188-3.781-19.056-1.92-28.205 3.694-16.144 10.453-30.614 18.782-44.847a446.774 446.774 0 0 0 3.165-5.526c2.043-3.543 4.172-7.023 6.348-10.485l1.277-2.033c.933-1.485 1.868-2.97 2.803-4.453 1.084-1.719 2.165-3.44 3.246-5.16 13.49-21.469 13.49-21.469 20.299-30.291l1.824-2.367a895.3 895.3 0 0 1 3.512-4.496c2.154-2.766 4.233-5.583 6.305-8.41 1.36-1.73 2.703-3.276 4.359-4.727h2l.75-1.875c1.487-2.529 2.687-2.843 5.25-4.125l.805-1.766c1.602-2.995 3.767-4.758 6.32-6.984l2.758-2.422L180 224c0 3.522-.567 4.058-2.813 6.625l-1.582 1.852C174 234 174 234 171 235c-.733 2.015-.733 2.015-1 4h2v-2l5-1c-2.85 3.404-5.741 6.744-8.79 9.973C157.97 256.636 157.97 256.636 150 269h-2l-.875 2.313C146 274 146 274 144 277h-2l-.805 2.188c-1.208 2.844-2.627 5.23-4.32 7.812a738.208 738.208 0 0 0-10.674 17.042c-1.34 2.185-2.7 4.356-4.06 6.528C108.315 332.868 96.158 357.2 97 384l5.184-2.992C104 380 104 380 106.313 379c1.83-.873 1.83-.873 2.542-2.785 1.375-2.66 3.09-4.476 5.145-6.652 10.163-11.181 17.942-23.09 25.668-36.036 2.621-4.385 5.365-8.658 8.207-12.902 3.753-5.741 6.693-11.69 9.476-17.943 1.606-3.596 3.279-6.526 5.649-9.682a203.535 203.535 0 0 0 2.196-5.108c1.385-3.259 3.058-6.371 4.679-9.517 3.067-6.033 5.693-12.104 8.035-18.46 2.04-5.456 4.464-10.72 7.09-15.915l1 6c2.839-2.571 3.905-5.04 5.172-8.66.936-2.644 1.968-5.239 3.016-7.84l1.042-2.594L196 229h3l-.188-2.938c-.009-4.601 1.243-8.905 3.188-13.062l2-1Z" fill="#666A72"/>
<path d="M468 222h2c-.111 3.813-.241 7.625-.375 11.438-.03 1.069-.062 2.138-.094 3.24-.233 6.361-.936 12.156-2.531 18.322.614-.21 1.227-.422 1.86-.64l2.14-.735 2.25-.773L476 252l3.5-1.094c5.762-1.412 11.606-1.119 17.5-1.031l3.504.027c2.832.024 5.664.057 8.496.098v3c-6.78 2.193-13.482 3.737-20.5 4.938-10.678 1.754-10.678 1.754-20.5 6.062-1.985 2.978-2.467 4.548-3.113 7.98l-.586 3.005-.613 3.202c-3.82 18.978-9.164 36.971-20.688 52.813l-2 3h-2l-2 6h-2l-.68 1.777c-3.405 5.733-12.087 9.815-18.355 11.84-3.874.755-7.226.703-10.965-.617-3.817-2.649-6.331-5.691-8.438-9.813-2.3-13.04 2.097-22.041 8.438-33.187l1.219-2.348c3.174-6.08 7.059-11.659 11.781-16.652h2v-2h2l.688-1.688c2.426-4.275 5.745-7.451 10.312-9.312v-2c7.276-6.632 15.433-12.202 24-17 2.385-2.385 1.852-8.816 2.162-12.21.427-4.259.941-7.886 2.838-11.79h2l-1 6 3-1c.167-2.917.167-2.917 0-6l-2-2h3l1-10Zm-20 53-1.95 1.309c-1.72 1.176-3.39 2.43-5.05 3.691v2h-2v2h-2v2l-1.809.832c-13.398 7.141-23.236 26.648-28.351 40.254-1.613 5.596-1.866 10.821.723 16.101 2.345 2.068 2.345 2.068 5.5 2.125 11.202-2.633 20.224-13.82 26.067-23.108 9.104-15.38 16.024-33.229 16.87-51.204-3.228 0-5.44 2.203-8 4Z" fill="#595D63"/>
<path d="M487 145c5.142 4.654 7.59 9.346 8.371 16.305.402 21.59-10.311 41.05-23.371 57.695l-2 3v-9h2l-1.5-1.375C469 210 469 210 469 208h-2v2h-2l-.148 1.758c-.448 4.681-1.15 8.817-2.852 13.242h-2v3h-6c.783-1.339 1.577-2.67 2.375-4 .44-.743.882-1.485 1.336-2.25L459 220h2c.962-2.885 1.218-5.052 1.395-8.066 3.417-53.166 3.417-53.166 13.605-66.934 4.132-2.61 6.715-2.186 11 0Zm-5 7c-7.618 15.313-9.188 32.16-10 49h2c5.285-7.342 8.604-15.333 11-24l.684-2.438c1.692-6.72 2.864-13.372-.684-19.625L483 152h-1Z" fill="#51575C"/>
<path d="m295.813 178.5 3.187.5v2h2c3.079 12.316-5.586 26.076-11.703 36.305L288 219h-2l-.387 1.797C285 223 285 223 283.188 226.25c-5.456 10.73-9.06 26.842-6.57 38.688.845 2.714.845 2.714 2.382 6.062 2.376.109 4.747.188 7.125.25l2.016.102c5.173.101 7.825-1.23 11.859-4.352 3.25-1.813 3.25-1.813 6-3l2 1c-.824 4.667-1.36 6.414-4.938 9.688-7.305 4.586-15.4 7.46-24.062 6.312-3-.75-3-.75-5-2-.688-2.063-.688-2.063-1-4l-2-1c-1.833-4.322-2.198-7.834-1.977-12.492l.157-3.633.195-3.75.172-3.82c.14-3.102.292-6.204.453-9.305l-4 2v3l-3 1-1 3h-2l-.938 2.438C258 255 258 255 257 256c-1.666.04-3.334.043-5 0 1.103-3.31 1.762-3.793 4.438-5.813 3.433-2.8 4.19-4.978 5.562-9.187 5.053-4 5.053-4 8-4l.75-2.75c1.25-3.25 1.25-3.25 3.164-5.086 6.454-6.695 7.722-17.398 8.629-26.266C283 200 283 200 285 197c.323-1.553.588-3.118.813-4.688 1.239-6.49 2.812-12.87 10-13.812Z" fill="#40444D"/>
<path d="m237 95 2 1-1 2h-2l1 2 2-1 1 4-1.398 1.145c-6.725 5.674-13.14 12.014-18.27 19.187-.44.55-.88 1.1-1.332 1.668h-2l-.77 1.766c-1.363 2.476-2.872 4.04-4.917 5.984a105.723 105.723 0 0 0-7.383 7.809c-4.321 4.98-8.968 9.63-13.638 14.28a1599.248 1599.248 0 0 0-4.462 4.468 5947.886 5947.886 0 0 1-5.467 5.46C174.826 170 174.826 170 172 170l-.594 1.64c-2.017 3.385-4.91 5.625-7.906 8.11l-1.892 1.59A1020.829 1020.829 0 0 1 156 186c-.53.44-1.058.882-1.604 1.336C146.385 194 146.385 194 144 194v2a102.149 102.149 0 0 1-6.188 4.563l-1.751 1.248c-3.29 2.27-6.033 3.887-10.061 4.189-1-1-1-1-1.313-3.379.313-2.621.313-2.621 2-4.21l2.313-1.349c3.066-1.876 6.02-3.751 8.875-5.937 2.19-1.675 4.39-3.31 6.648-4.895 6.351-4.467 12.045-9.328 17.692-14.628a220.447 220.447 0 0 1 7.035-6.29c4.679-4.056 9.02-8.45 13.293-12.93A98.743 98.743 0 0 1 186 149h2v-2h2v-2h2v-2h2v-2a273.038 273.038 0 0 1 4.21-3.438c2.67-2.33 4.892-4.995 7.177-7.695 1.481-1.715 2.917-3.363 4.613-4.867h2l.73-2.188c1.445-3.2 3.195-5.244 5.583-7.812l2.44-2.64c2.376-2.496 4.811-4.924 7.247-7.36a320.441 320.441 0 0 0 2.688-3.313L233 99h2v-2h2v-2Z" fill="#6A6D75"/>
<path d="M285 192h1c-.875 6.875-.875 6.875-2 8-.313 1.84-.621 3.68-.9 5.525-3.107 20.316-3.107 20.316-9.213 25.147L272 232l-.75 2.375c-1.448 3.04-2.383 3.459-5.25 5.063-4.092 2.342-4.618 4.046-6 8.562-1.713 1.734-3.514 3.213-5.441 4.703-1.694 1.233-1.694 1.233-2.559 3.297 2.409-.113 2.409-.113 5-1 1.699-2.498 1.699-2.498 3-5h2l1-4h3v-3c2.5-1.688 2.5-1.688 5-3l-.108 2.475c-.158 3.716-.306 7.433-.454 11.15l-.17 3.895-.147 3.77-.143 3.459c.022 3.227.273 6.111 1.022 9.251 1.952 1.436 1.952 1.436 4 2l-2 2c-4.176-4.819-6.136-7.539-6.098-14.105l.01-2.979.026-3.103.013-3.14c.012-2.557.028-5.115.049-7.673l-1.426 1.898-1.887 2.477-1.863 2.46C260 256 260 256 257 258h-3v2c-6.638 3.796-11.928 5.69-19.688 4.375-4.71-1.956-7.21-4.07-9.437-8.727-3.846-9.813-5.172-19.56-4.848-30.054-.025-2.398-.333-4.311-1.027-6.594l4-1c5.095 6.948 5.21 15.926 5.754 24.238.236 2.65.674 5.166 1.246 7.762l1.875.313C234 251 234 251 236 254c4.85.886 9.62.261 14-2v-2a374.925 374.925 0 0 1 6-4l1-2h2l.82-1.79c1.164-2.18 2.401-3.76 4.055-5.585 2.005-2.264 3.765-4.503 5.375-7.063L271 227h2l.445-1.773c1.634-6.255 3.531-12.403 5.555-18.54l.754-2.315c1.442-4.322 3.092-8.34 5.246-12.372Z" fill="#3F444E"/>
<path d="M349 203h1c.25 7.625.25 7.625-2 11l-.5 3.563C347 221 347 221 345 223c.016 2.417.016 2.417.438 5.063.223 1.64.42 3.287.562 4.937l-1 1c-2.117 11.762-2.759 24.78 3.375 35.375 2.21 2.21 3.682 3.435 6.625 4.625 5.05-.008 10.088-.854 15-2v-2l-2-1c3.106 0 4.353.54 7 2-12.844 7.193-12.844 7.193-20 6-5.263-1.828-9.013-4.174-12-9-3.067-7.425-3.14-15.034-3.063-22.938l.014-2.65c.012-2.137.03-4.275.049-6.412l-1.023 1.531-1.352 1.969-1.336 1.969L335 243h-2l-.75 1.688c-1.48 2.736-3.185 4.989-5.25 7.312h-2l-.719 1.703c-1.57 2.816-3.496 4.777-5.781 7.047l-2.406 2.422C314 265 314 265 312 265v2h-2v2l-3 1v-5c-3.791 1.517-6.833 2.882-10.188 5.25C294 272 294 272 291.825 271.61L290 271a488379439.73 488379439.73 0 0 1 6.738-3.809C299 266 299 266 302 265v-2c1.68-1.727 1.68-1.727 3.875-3.625l2.18-1.914C310 256 310 256 312 256l.715-1.715c1.58-2.808 3.512-4.629 5.848-6.847 7.551-7.422 13.933-15.653 20.25-24.125l1.382-1.835c4.088-5.563 7.933-11.502 8.805-18.478Zm22 64 2 1-2 1v-2Z" fill="#505358"/>
<path d="M359.938 187.75 363 188c2.168 3.252 2.316 4.63 1.746 8.414-1.943 6.735-5.66 13.267-9.371 19.172-7.375 12.948-5.935 32.826-5.02 47.172.87 3.024 2.208 4.287 4.645 6.242 2.937 1.282 5.79 1.94 9 2 2.419-1.75 2.419-1.75 4-4h3l-1 2v3c-4.723 2.361-9.751 3.202-15 3-4.425-2.13-7.368-4.864-10-9-1.708-5.658-2.289-10.676-2.188-16.563l.002-2.17c.046-5.567.413-10.95 2.186-16.267-.168-2-.168-2-.563-4.063L344 223l2-2c.34-2.332.672-4.666 1-7l2-3c.235-2.109.235-2.109.25-4.438.476-6.207 3.54-18.204 10.688-18.812ZM375 264c1 3 1 3 0 6l-4-1v-4c2-1 2-1 4-1Z" fill="#383C43"/>
<path d="M419 295c1.063 1.875 1.063 1.875 2 4l-1 2h-2l-1 5h-2v3h-2l-1 6h-2l-.402 2.52-.536 3.293-.527 3.269C408 327 408 327 407 330a72.154 72.154 0 0 0-.25 4.938l-.078 2.59c.398 3.002 1.262 4.286 3.328 6.472 3.174 1.777 3.174 1.777 7 2 2.96-1.28 5.423-3.078 8-5 2.875-1.875 2.875-1.875 5-3l2 1v6c-16.221 10.13-16.221 10.13-25.625 8.563-4.136-2.721-8.398-6.772-10.063-11.528-2.113-13.767 3.781-24.357 10.938-35.723L409 304h2l1-3c1.629-1.605 1.629-1.605 3.563-3.188l1.94-1.605L419 295Z" fill="#4B5055"/>
<path d="M408 213h1c.108 1.915.186 3.833.25 5.75l.14 3.234c-.48 3.71-1.643 4.602-4.39 7.016-1.268 3.134-1.268 3.134-2 6l5-5 2 1-1 4h-2a90.08 90.08 0 0 0-3.5 5 90.08 90.08 0 0 1-3.5 5h-2l-.816 1.746c-1.205 2.293-2.56 4.253-4.122 6.316l-1.527 2.036c-1.431 1.774-2.819 3.4-4.535 4.902h-2l-.773 1.797c-1.345 2.415-2.72 3.715-4.852 5.453l-1.914 1.578L376 270c-.553-2.076-1-3.844-1-6l-4 1v2c-2.25 1.5-2.25 1.5-5 3l-1.887 1.164c-3.408 1.348-5.744.06-9.047-1.176-2.612-1.25-3.926-2.3-5.066-4.988.313-2.25.313-2.25 1-4l1.375 2.438c1.372 2.65 1.372 2.65 3.625 3.562 6.5.78 9.988-1.238 15-5 1.134-.926 2.26-1.863 3.375-2.813C377 257 377 257 379 257l.563-2c2.045-4.27 5.009-7.742 8.437-11h2v-2h2l.797-2.23c1.208-2.782 2.549-4.736 4.453-7.083l1.867-2.355a393.3 393.3 0 0 1 3.64-4.445c3.502-4.355 5.009-7.265 5.243-12.887Z" fill="#54595F"/>
<path d="M132 354c1.154 3.461.639 4.732-.844 7.965-2.274 4.002-5.26 7.474-8.156 11.035l-1.594 2.27L120 377h-2l-.805 1.754c-3.539 6.65-9.288 12.213-16.195 15.246-3.914 1.003-7.1 1.3-11 0-1.953-12.433-2.015-24.277 3-36l3-2c.068 3.882.08 7.47-.5 11.313-.79 5.82-1.376 12.06.5 17.687 4.638-.446 7.441-.968 11-4h2l.75-1.688c1.468-2.715 3.316-4.91 5.25-7.312l1.563-2.75C118 367 118 367 121 366l.371-1.797c.936-3.278 3.02-4.423 5.692-6.453l2.785-2.14L132 354Z" fill="#4D545C"/>
<path d="M421 184.188c2 .812 2 .812 3.133 2.382 1.214 3.402.993 6.575.742 10.118l-.147 2.154c-.462 5.352-1.222 10.873-4.728 15.158a58.516 58.516 0 0 1-4 1l-.113 3.797a5697.6 5697.6 0 0 1-.2 4.953l-.068 2.5c-.335 7.545-.335 7.545-3.619 10.75l-1-6c-3.242.35-4.615.562-6.813 3.063L403 236c0-3.827.109-4.914 2-8l1.551-1.374c2.545-2.857 1.854-6.781 1.887-10.439.34-11.105 2.058-21.865 8.562-31.187 2-1 2-1 4-.813Z" fill="#323841"/>
<path d="M479.625 144.563C483 145 483 145 485 146v2h2l2 5-2.813-.313L483 153c-8.81 11.66-9.219 32.104-10 46h-4v2h-2l-1-8h-1c-.256-7.224.448-13.912 1.813-21l.501-2.79c4.423-23.695 4.423-23.695 12.311-24.648Z" fill="#5C636B"/>
<path d="m295.813 178.5 3.187.5v2h2c3.079 12.316-5.586 26.076-11.703 36.305L288 219h-2l-.383 1.781C285 223 285 223 283.125 226.5c-2.707 5.217-3.87 10.792-5.125 16.5h-1c-.544-7.232.279-12.698 4-19l2-2c.648-2.57.648-2.57 1-5h2l-.254-1.863-.308-2.45-.317-2.425C285 208 285 208 286 205l-1-2h-2l.422-1.64c.414-1.692.796-3.39 1.156-5.094 3.74-16.783 3.74-16.783 11.235-17.766Z" fill="#45474E"/>
<path d="M468 222h2c-.111 3.813-.241 7.625-.375 11.438-.03 1.069-.062 2.138-.094 3.24-.233 6.361-.936 12.156-2.531 18.322.614-.21 1.227-.422 1.86-.64l2.14-.735 2.25-.773L476 252l3.5-1.094c5.762-1.412 11.606-1.119 17.5-1.031l3.504.027c2.832.024 5.664.057 8.496.098v3c-6.815 2.193-13.58 3.811-20.625 5.063-6.19 1.117-12.288 2.34-18.375 3.937v-4l-5 1-1-11-3 11-3-1c.283-2.897.576-5.792.875-8.688l.238-2.474c.45-4.264.991-7.927 2.887-11.838h2l-1 6 3-1c.167-2.917.167-2.917 0-6l-2-2h3l1-10Z" fill="#595E64"/>
<path d="M148 320c1 2 1 2 .25 5.375-1.142 3.31-2.154 4.942-4.25 7.625-1.1 2.3-2.044 4.633-3 7h2l.25-1.688c.989-3.049 2.598-4.964 4.75-7.312h2l1-5h2l1-3 1 3a103.129 103.129 0 0 1-4.563 7.563l-2.804 4.351-1.382 2.13c-1.55 2.425-3 4.901-4.439 7.394-2.869 4.842-6.257 9.207-9.812 13.562-1-3-1-3-1-5a533.865 533.865 0 0 0-4.438 3.313l-2.496 1.863c-2.316 1.737-2.316 1.737-3.066 4.824l-1.875 1.313c-2.748 2.182-3.586 4.548-5.125 7.687-3.544 4.961-7.43 8.406-13 11-3 .313-3 .313-5 0-1.923-3.248-2.297-5.744-2.313-9.5l-.05-2.844C94 371 94 371 97 367v17l7-4 2.313-1c1.83-.873 1.83-.873 2.542-2.785 1.375-2.66 3.09-4.476 5.145-6.652 10.923-12.018 19.152-25.033 27.436-38.956 2.14-3.567 4.345-7.089 6.564-10.607Z" fill="#5B6167"/>
<path d="M115 314c1 3 1 3 .063 5.188L114 321h-2l.25 3.5c-.014 3.946-1.043 6.565-2.973 10.04-1.667 3.212-3.006 6.537-4.34 9.897l-.786 1.983c-2.33 5.936-4.332 11.93-6.213 18.017C97 367 97 367 95 369v-12l-1.375 4.125c-.85 2.548-1.696 5.047-2.719 7.531-1.25 4.611-1.12 8.967-1.031 13.719l.027 2.809c.024 2.272.057 4.544.098 6.816-3.845-3.845-3.306-8.466-3.317-13.621.213-11.18 3.599-21.894 7.254-32.379l.692-2.088C95.34 342 95.34 342 97 339c2.691-.938 2.691-.938 5-1l.313-3.688c.675-5.257 2.506-8.16 6.312-11.875 2.386-2.449 2.72-3.272 3.375-6.437l3-2Z" fill="#535961"/>
<path d="m171 284 1 2c-.742 2.137-.742 2.137-1.875 4.688-1.316 3.106-2.124 5.3-2.438 8.687-.93 4.905-3.32 8.453-5.91 12.68a84 84 0 0 0-4.027 7.507c-1.473 2.894-2.358 4.41-4.75 6.438h-2l-1 5h-2l-.813 1.688c-1.296 2.524-2.612 4.95-4.187 7.312h-2c.879-4.568 2.7-8.7 6-12 .497-2.162.497-2.162.813-4.625.82-4.405 2.094-7.25 4.628-10.89 2.594-4.134 4.582-8.595 6.616-13.027 1.824-3.812 2.969-5.906 6.943-7.458a168.693 168.693 0 0 0 2-6l3-2Z" fill="#696E74"/>
<path d="m135 276 1 2-1 3h-2l-.313 3.313c-.691 3.71-.958 4.413-3.687 6.687l-1 3h2v-3h3c-1.276 3.382-2.735 6.423-4.61 9.512l-1.538 2.549-1.602 2.627-1.555 2.568c-1.035 1.71-2.072 3.418-3.111 5.124a564.677 564.677 0 0 0-3.277 5.494l-1.635 2.77-1.482 2.531L113 326h-1v-5l2-1v-4h-2l-.313 2.813c-.692 3.212-1.075 4.306-3.687 6.187h-2l-.418 1.707c-.594 2.34-1.21 4.664-1.894 6.98l-.676 2.387C102 338 102 338 99.895 338.77L98 339c1.386-4.693 3.395-8.747 5.875-12.938l1.027-1.763c.687-1.18 1.376-2.357 2.067-3.534 1.019-1.744 2.017-3.5 3.011-5.257 2.066-3.62 4.244-7.164 6.457-10.695l1.268-2.026c5.654-9 11.477-17.892 17.295-26.787Z" fill="#727880"/>
<path d="M216 208v4c-2.098 2.098-6.109 1.887-9 2l-5-1-3 16h-3l-.25 2.5c-.773 3.606-1.99 6.244-3.707 9.469-1.005 1.957-1.812 3.919-2.606 5.969L188 250l-3 1c-.678-8.139 1.585-13.687 5-21a2007.92 2007.92 0 0 0 2.313-5.25c.56-1.25 1.122-2.5 1.687-3.75l-5 1v-2h2v-3c6.625-3.875 6.625-3.875 10-5l1-3c4.672-1.206 9.215-1.094 14-1Z" fill="#5B5D63"/>
<path d="M483.813 143.438c5.073 2.487 8.166 6.124 10.343 11.324.967 3.709 1.11 6.97 1.094 10.8l.016 3.88c-.249 3.327-.825 5.58-2.266 8.558h-2v3h-2v2h-3l1 5-3 1c-.2-6.558-.06-12.478 1.543-18.844 1.361-6.423.948-11.483-2.543-17.156h6l-2-5h-2v-2l-7-1c3-2 3-2 5.813-1.563Z" fill="#565D66"/>
<path d="M359.938 187.75 363 188c2.168 3.252 2.316 4.63 1.746 8.414-1.942 6.733-5.652 13.3-9.398 19.18-1.462 2.61-2.026 4.782-2.536 7.719l-.48 2.675L352 228h-1l-.113-2.555-.2-3.32-.175-3.305L350 216l-3-2 2-3c.235-2.109.235-2.109.25-4.438.476-6.207 3.54-18.204 10.688-18.812Z" fill="#323841"/>
<path d="M210 189c1.105 1.676 1.105 1.676 2 4-.574 2.543-.574 2.543-1.688 5.188l-1.074 2.667C208 203 208 203 205 204v4l2 1h-5l-1 5-2.188.375c-2.77.615-5.209 1.51-7.812 2.625v3h-2v2l5-1c-2.727 3.634-5.532 6.415-9.125 9.188-3.564 2.762-3.564 2.762-6.875 5.812-1.988.398-3.99.738-6 1v2h-2c.188-2.313.188-2.313 1-5 .755-.447 1.51-.895 2.29-1.355 3.066-1.861 4.718-3.812 6.898-6.645 1.01-1.3 1.01-1.3 2.042-2.625A125.484 125.484 0 0 0 186 218h2v-2a105.24 105.24 0 0 1 4.625-2.375c7.176-4.147 9.761-10.501 12.18-18.18.467-1.798.844-3.62 1.195-5.445l4-1Z" fill="#54585E"/>
<path d="M230 123h1c.186 4.093-.151 6.411-2 10-.387 2.325-.73 4.659-1 7h-2v3l5-2a292.98 292.98 0 0 1-5.5 20.313l-.61 1.99a94.942 94.942 0 0 1-3.347 9.088c-1.83 4.279-3.288 8.625-4.73 13.047l-.827 2.505c-.665 2.018-1.326 4.038-1.986 6.057-1.093-3.279-.9-4.453-.188-7.75l.575-2.664A158.27 158.27 0 0 1 217 174h2l.148-2.195c.789-10.193.789-10.193 2.852-14.805l2-1c.626-3.38 1-6.562 1-10-4.041 7.334-6.475 15.052-9 23-1.348-4.37-.25-7.727 1-12l.629-2.32c1.914-6.803 4.584-13.196 7.371-19.68.94-2.249 1.878-4.499 2.813-6.75L230 123Z" fill="#5F6268"/>
<path d="M467 208h2v2l3 1v2h-2v9h-2l.125 3.25c-.114 3.407-.338 4.957-2.125 7.75l1 1c.04 2 .043 4 0 6l-4 1 1-6-3 1v-4l2-1-4-1-.813 1.688c-3.53 6.874-3.53 6.874-7.187 9.312l-1 3-2-1 1-2-2-1h2l.25-2.625c.887-3.99 2.047-6.306 4.75-9.375 3.25-.375 3.25-.375 6 0v-3l2-1a107.33 107.33 0 0 0 1.625-7.063c.26-1.29.52-2.58.79-3.91.192-.999.386-1.998.585-3.027h2v-2Z" fill="#444A50"/>
<path d="m463 247 2 1v11l5-1v5h-5l-.938 3.438C463 270 463 270 462 271c-.212 2.246-.37 4.498-.5 6.75-.245 4.179-.565 8.166-1.5 12.25h-2v5l-3 1c.862-10.147.862-10.147 1.625-14.875.537-3.066.537-3.066-.188-5.813-.532-2.816.065-3.932 1.563-6.312h-6l1-5 4 1 1-6h3l-.125-2.063c.15-3.536 1.069-6.57 2.125-9.937Z" fill="#4F5458"/>
<path d="M408 213h1c.108 1.915.186 3.833.25 5.75l.14 3.234c-.48 3.71-1.643 4.602-4.39 7.016-1.268 3.134-1.268 3.134-2 6l5-5 2 1-1 4h-2a90.08 90.08 0 0 0-3.5 5 90.08 90.08 0 0 1-3.5 5h-2l-.813 1.813c-1.172 2.16-2.38 3.545-4.187 5.187v-6c-6.161 3.763-6.161 3.763-12 8 1.674-3.957 4.131-6.845 7-10h2v-2h2l.797-2.23c1.208-2.782 2.549-4.736 4.453-7.083l1.867-2.355a393.3 393.3 0 0 1 3.64-4.445c3.502-4.355 5.009-7.265 5.243-12.887Z" fill="#5C6066"/>
<path d="m402 328 2 1c.54 3.21.89 6.392 1.21 9.629.202 1.798.49 3.586.79 5.371l2 1v2c7.016-.179 11.342-1.948 17-6 2.875-1.875 2.875-1.875 5-3l2 1c0 6 0 6-1.363 7.414-6.597 4.098-13.188 5.67-20.95 5.524-3.734-1.303-5.93-3.118-8.687-5.938-2.078-4.345-2.435-8.22-2-13 1.5-2.938 1.5-2.938 3-5Z" fill="#333A44"/>
<path d="m204 212 3 2-2 2a98.808 98.808 0 0 0-1.688 5.188c-1.83 5.71-4.161 10.988-6.742 16.38a183.534 183.534 0 0 0-5.543 12.842c-1.757 4.43-3.68 8.79-5.574 13.164-1.63 3.843-3.139 7.721-4.594 11.633C180 277 180 277 178 278c1.457-7.143 2.992-13.778 6.328-20.293L185 256l-1-2-4 8h-2c1.765-6.107 3.696-12.074 6-18h1l1 6c2.839-2.571 3.905-5.04 5.172-8.66.936-2.644 1.968-5.239 3.016-7.84l1.042-2.594L196 229h3l-.188-2.938c-.009-4.601 1.243-8.905 3.188-13.062l2-1Z" fill="#777A80"/>
<path d="M95 356h1c.068 3.882.08 7.47-.5 11.313-1.457 9.71-1.457 9.71 1.5 18.687 3.042 1.292 3.042 1.292 6 2v-2l4-2-1 5-8 1v3h-8c-2.29-12.209-1.53-23.442 3-35l2-2Z" fill="#3E4751"/>
<path d="m453 228 1 2-1.938 2.563c-2.253 3.356-2.824 6.386-3.062 10.437l1 1 .313-1.938L451 240l3-1 .438-1.75c.8-3.2 2.246-4.934 4.562-7.25 2.75-.313 2.75-.313 5 0a620.994 620.994 0 0 1-11.25 12.938l-2.578 2.902C448 248 448 248 446 248v2c-5.412 4-5.412 4-8 4v-3h3v-3l-3 1h-3l-3 1a65.305 65.305 0 0 1-4.188.063L424 250v-2h3.813c9.266-1.077 15.725-8.135 21.375-15a316.665 316.665 0 0 0 3.812-5Z" fill="#49535B"/>
<path d="M457 259c1.125 3.75 1.125 3.75 0 6h-3l-2 4 7-1-2 5-1-2c-5.482 3.308-5.482 3.308-10.563 7.188-3.095 2.301-5.7 2.933-9.437 3.812-1-1-1-1-1.398-3.75.548-4.474 2.275-5.501 5.773-8.25l1.63-1.294c4.728-3.681 9.732-6.842 14.995-9.706Z" fill="#565B60"/>
<path d="M448 302h1c-.326 6.323-.615 11.555-4 17h-2l-1 4h-2l-.188 3.188c-.955 4.48-2.519 5.772-5.812 8.812v3l4-2-1 4h-2l-2 4-1-3c-1.922-1.193-1.922-1.193-3.938-.75-2.107.594-2.107.594-3.375 2.125-2.535 2.442-5.426 3.333-8.687 4.625l-2-2c.822-.51 1.645-1.02 2.492-1.547C432.433 333.22 440.827 319.132 448 302Z" fill="#60676E"/>
<path d="m465 263 3 1-2 3c-.65 2.343-.65 2.343-1.113 4.98l-.587 3.008-.613 3.2c-1.955 9.85-4.408 19.324-7.687 28.812h-1l-1-6-5 1 .805-3.55c1.904-8.456 3.763-16.898 5.195-25.45 2.374 2.374 2.683 4.144 3.047 7.426-.097 5.321-1.667 10.461-3.047 15.574l2-1c.656-2.527.656-2.527 1-5h2l.06-1.712c.095-2.555.205-5.109.315-7.663.03-.89.062-1.779.094-2.695l.117-2.578.095-2.38C461 271 461 271 463 269a126.235 126.235 0 0 0 2-6Z" fill="#666B71"/>
<path d="M138 336c1.125 3.75 1.125 3.75 0 6h-2l-.332 1.898-.48 2.477-.458 2.46C134 351 134 351 131 353l-.75 2.313c-1.583 3.402-3.563 4.538-6.691 6.476-1.871 1.222-1.871 1.222-2.559 4.211l-1.875 1.313c-2.748 2.182-3.586 4.548-5.125 7.687-3.544 4.961-7.43 8.406-13 11-3 .313-3 .313-5 0-1.923-3.248-2.297-5.744-2.313-9.5l-.05-2.844C94 371 94 371 97 367v17l7-4 2.313-1c1.83-.873 1.83-.873 2.542-2.785 1.375-2.66 3.09-4.476 5.145-6.652 9.475-10.386 17.03-21.39 24-33.563Z" fill="#767C83"/>
<path d="M285 192h1c-.875 6.875-.875 6.875-2 8-.313 1.84-.621 3.68-.9 5.525-3.107 20.316-3.107 20.316-9.213 25.147L272 232l-.75 2.375c-1.452 3.05-2.438 3.502-5.313 5.125-3.366 1.837-3.366 1.837-4.937 5.313V247l-6 1 2-4h2l.82-1.79c1.164-2.18 2.401-3.76 4.055-5.585 2.005-2.264 3.765-4.503 5.375-7.063L271 227h2l.445-1.773c1.634-6.255 3.531-12.403 5.555-18.54l.754-2.315c1.442-4.322 3.092-8.34 5.246-12.372Z" fill="#444950"/>
<path d="M222 218c4.417 2.945 4.37 6.367 5.43 11.395 1.067 6.75 1.942 13.466-1.43 19.605v2l-3-1c-1.909-8.318-3.364-15.937-3.008-24.512.008-2.367-.306-4.234-.992-6.488l3-1Z" fill="#44464C"/>
<path d="m151 184 2 1c-1.247 3.742-3.099 5.375-6 8l-3 1v2a102.149 102.149 0 0 1-6.188 4.563l-1.751 1.248c-3.29 2.27-6.033 3.887-10.061 4.189-1-1-1-1-1.297-3.383.297-2.617.297-2.617 1.844-4.172l2.203-1.32 2.469-1.512L134 194l3.094-1.832a758.311 758.311 0 0 1 6.11-3.555 126.752 126.752 0 0 0 5.53-3.383L151 184Z" fill="#565D67"/>
<path d="M408 305h1c.347 4.862-.477 7.827-3 12l-2 1c-.91 2.344-.91 2.344-1.625 5.063-.26.919-.52 1.838-.79 2.785L401 328h-2c-.234 6.34-.15 11.982 2 18 1.766 1.425 1.766 1.425 4 2l2.242 1.563c3.398 1.77 5.303 1.58 9.07 1.125l3.239-.364L422 350c-4.162 3.501-7.673 3.962-13 4-4.889-.815-7.417-4.35-10.547-7.93-3.327-4.74-2.898-10.495-2.453-16.07 1.481-7.281 5.3-13.642 9-20l1.625-2.828L408 305Z" fill="#686E77"/>
<path d="m497 249.875 3.504.027c2.832.024 5.664.057 8.496.098v3c-8.144 2.65-16.385 5-25 5l1-3h-8l-1-3c7.06-2.198 13.644-2.235 21-2.125Z" fill="#6A6F75"/>
<path d="M285 202c2 3 2 3 1.625 5.25L286 210a194.485 194.485 0 0 0 0 7h-2l.25 2.188c-.329 3.695-1.925 4.955-4.25 7.812-2.152 4.51-3.38 9.038-4 14h-3v-3h-2c.5-6.508.5-6.508 2.883-8.855 5.897-5.974 7.599-16.028 8.66-24.098L283 203l2-1Z" fill="#3A3D41"/>
<path d="M491 178h2c-.572 5.402-2.466 9.622-4.813 14.438l-1.04 2.197c-2.193 4.578-4.58 8.987-7.147 13.365-1.251-3.547-.723-5.723.438-9.25l.87-2.703L482 194h-2l-.75 2.375c-1.404 2.948-2.257 3.527-5.25 4.625 1.86-4.886 4.245-9.433 6.66-14.063 1.232-2.701 1.905-5.014 2.34-7.937h1v10l2-1v-5h3v-2h2v-3Z" fill="#5E656C"/>
<path d="M235 112h1v6l5-2a537.665 537.665 0 0 1-3 9l-.634 1.964a403.486 403.486 0 0 1-2.179 6.474l-.678 2.152c-.716 2.031-.716 2.031-2.509 5.41-3.2 1.473-3.2 1.473-6 2v-3h2l-.125-3.25c.123-3.678.551-4.655 2.125-7.75.36-1.594.67-3.2.938-4.813.821-4.438 2.118-8.122 4.062-12.187Z" fill="#62656C"/>
<path d="M421 184.188c2 .812 2 .812 3.133 2.382 1.214 3.402.992 6.574.742 10.118l-.138 2.152c-.467 5.617-1.826 10.285-4.737 15.16l-2-1 1-3.063c.785-2.71 1-4.534 1-7.437 0-3.96.779-6.76 2-10.5l-4-4-1 5-3 1-.313 3.438c-.578 4.756-2.038 9.081-3.687 13.562h-1c.766-9.5 2.703-17.969 8-26 2-1 2-1 4-.813Z" fill="#434B59"/>
<path d="M102 339c-1.714 13.714-1.714 13.714-4 16-.285 3.069-.449 6.138-.621 9.215C97 367 97 367 95 369v-12l-1.375 4.125c-.85 2.548-1.696 5.047-2.719 7.531-1.25 4.611-1.12 8.967-1.031 13.719l.027 2.809c.024 2.272.057 4.544.098 6.816-3.919-3.919-3.234-8.63-3.26-13.867.083-6.612 1.46-12.78 3.26-19.133h2l.875-2.813C94 353 94 353 96 350c.36-1.321.67-2.657.938-4 1.62-7 1.62-7 5.062-7Z" fill="#636A74"/>
<path d="m271 240-.108 2.475c-.158 3.716-.306 7.433-.454 11.15l-.17 3.895-.147 3.77-.143 3.459c.022 3.227.273 6.111 1.022 9.251 1.952 1.436 1.952 1.436 4 2l-2 2c-4.176-4.819-6.136-7.539-6.098-14.105l.01-2.979.026-3.103.013-3.14c.012-2.557.028-5.115.049-7.673l-1.426 1.898-1.887 2.477-1.863 2.46C260 256 260 256 257 258h-3v2l-4 1c.125-1.875.125-1.875 1-4l2.875-.938c3.804-1.293 4.31-2.614 6.125-6.062h2l1-4h3v-3c3.444-3 3.444-3 5-3Z" fill="#5C6169"/>
<path d="M216 208v4c-2.122 2.122-6.088 1.83-9 2-3-.438-3-.438-5-1l-.402 1.863-.536 2.45-.527 2.425C200 222 200 222 199 225l-3 1-2-4h-5v-2h2v-3c6.625-3.875 6.625-3.875 10-5l1-3c4.672-1.206 9.215-1.094 14-1Z" fill="#414451"/>
<path d="M324 242c0 3.545-.827 4.702-2.75 7.625l-1.547 2.414c-1.923 2.214-2.897 2.455-5.703 2.961-1.142 1.782-1.142 1.782-2 4a392.898 392.898 0 0 1-3 5l6-2v-2l3 1a90.488 90.488 0 0 1-4 4h-2v2h-2v2l-3 1v-5c-3.791 1.517-6.833 2.882-10.188 5.25C294 272 294 272 291.825 271.61L290 271a488379439.73 488379439.73 0 0 1 6.738-3.809C299 266 299 266 302 265v-2c1.68-1.727 1.68-1.727 3.875-3.625l2.18-1.914C310 256 310 256 312 256l.68-1.672c1.724-3.04 3.945-5.142 6.445-7.578l2.758-2.703L324 242Z" fill="#545860"/>
<path d="M343 235h1l-.048 1.969c-.063 2.99-.101 5.979-.14 8.969l-.076 3.095c-.071 7.488.852 13.8 4.639 20.342 2.21 2.21 3.682 3.435 6.625 4.625 5.05-.008 10.088-.854 15-2v-2l-2-1c3.106 0 4.353.54 7 2-12.844 7.193-12.844 7.193-20 6-4.806-1.72-8.299-3.547-11-8-3.53-10.9-3.355-21.737-2-33l1-1Zm28 32 2 1-2 1v-2Z" fill="#495058"/>
<path d="M471 168h2c.092 6.795-.003 13.27-1 20-.085 3.668-.06 7.331 0 11h-3v2h-2l-1-8h-1v-5l2-1v-9h2l.184-1.934.253-2.504.247-2.496C470 169 470 169 471 168Z" fill="#4C545B"/>
<path d="m491 159 2 1v18h-2v3h-2v2h-3l1 5-3 1v-10h2c-.03-1.207-.03-1.207-.063-2.438C486 174 486 174 487 173c.244-2.777.384-5.552.523-8.336.526-2.936 1.173-3.853 3.477-5.664Z" fill="#4B5259"/>
<path d="m418 247 6 1v2c1.771-.31 3.542-.623 5.313-.938l2.988-.527c2.78-.492 2.78-.492 5.699-1.535l3 1v3h-3l-.188 1.875C437 255 437 255 434.938 256.25c-3.89.993-6.918 1.08-10.937.75l-2-3-3-2c-.688-2.625-.688-2.625-1-5Z" fill="#323942"/>
<path d="m162 172 1 3h4v-2l-2-1h3l1 3a31195 31195 0 0 1-7.852 6.65 1621.9 1621.9 0 0 1-11.148 9.35l-2-1 4-2-1-3-2.188 1.375c-2.56 1.48-5.045 2.597-7.812 3.625 3.368-3.578 6.9-6.477 10.863-9.375 3.538-2.69 6.833-5.655 10.137-8.625z" fill="#70747D"/>
<path d="m306 264 2 1c-.788 4.465-1.49 7.043-5.188 9.813-3.47 2.216-6.81 3.288-10.812 4.187l2-6-1.64.496c-2.762.59-5.288.6-8.11.567l-2.984-.028L279 274v-3l3.07.14c1.352.038 2.703.075 4.055.11l2.016.102c5.173.101 7.825-1.23 11.859-4.352 3.25-1.813 3.25-1.813 6-3Z" fill="#51555E"/>
<path d="m478 145 7 1v2h2l2 5-2.75-.375L483 153c-2.128 2.817-2.128 2.817-4 6-2.625 1.938-2.625 1.938-5 3l-2-1 1-5 3-1-.125-2.75c.12-3.128.516-4.636 2.125-7.25Z" fill="#38424B"/>
<path d="m181 157 2 2c-2.176 5.2-4.526 7.763-9 11h-2l-2 4h-2l-1 1h-4c.566-5.944 4.029-8.187 8.344-11.906 3.101-2.445 6.13-4.331 9.656-6.094Z" fill="#6D7178"/>
<path d="M347 263h3l1.125 2.313c2.436 3.491 4.69 4.078 8.621 5.402 2.785.352 3.924-.206 6.254-1.715l2-2h3l-1 2v3c-4.718 2.36-9.755 3.21-15 3-3.893-1.911-6.94-4.121-9-8 .313-2.25.313-2.25 1-4Zm28 1c1 3 1 3 0 6l-4-1v-4c2-1 2-1 4-1Z" fill="#333841"/>
<path d="M144 267h2l-1 6h-2l-.75 1.938c-5.468 13.396-5.468 13.396-8.25 16.062h-4v3h-2l1-5 3-1 1-7h2l.25-2.375L136 276c1.325-.684 2.659-1.35 4-2 1.283-2.538 1.283-2.538 2-5h2v-2Z" fill="#595C66"/>
<path d="M215 119c2.063.438 2.063.438 4 1v3h-2l-1.125 3.125c-2.273 5.337-6.12 8.705-10.875 11.875h-3c1.004-5.421 3.886-9.417 8-13h2l.938-2.438C214 120 214 120 215 119Z" fill="#6A6E72"/>
<path d="m463 247 2 1v11l5-1v5h-5v2l-7 2v-8h3l-.125-2.063c.15-3.536 1.069-6.57 2.125-9.937Z" fill="#4E5358"/>
<path d="m166 244 3 1-1.723 1.871c-5.034 5.522-9.79 11.155-14.277 17.129l-1-4c-2.962.613-4.38 1.254-7 3 1.628-3.757 4.014-6.617 6.625-9.75l2.477-2.984L156 248c0 3.204-.743 5.094-2 8l4-1v-4h4l1-5h3v-2Z" fill="#71757C"/>
<path d="m135 276 1 2-1 3h-2l-.313 3.313c-.691 3.71-.958 4.413-3.687 6.687l-1 3h2v-3h3c-1.135 3.3-2.635 6.298-4.375 9.313-.4.697-.8 1.394-1.21 2.113L126 304h-4c1.765-10.945 6.883-18.985 13-28Z" fill="#70767E"/>
<path d="M226 144c1.271 3.813.361 5.294-1 9-.35 1.33-.691 2.66-1 4h-2l.063 2.438C222 162 222 162 221 163a142.221 142.221 0 0 0-1.063 5.563l-.535 3.066L219 174h-3c-1.428-4.583-.384-7.952 1.188-12.313l.698-2.008c4.17-11.736 4.17-11.736 8.114-15.679Z" fill="#545459"/>
<path d="M379 257c-.561 3.257-1.372 4.956-4 7-2.188.688-2.188.688-4 1v2c-2.25 1.5-2.25 1.5-5 3l-1.887 1.164c-3.408 1.348-5.744.06-9.047-1.176-2.612-1.25-3.926-2.3-5.066-4.988.313-2.25.313-2.25 1-4l1.375 2.438c1.372 2.65 1.372 2.65 3.625 3.562 6.5.78 9.988-1.238 15-5 1.134-.926 2.26-1.863 3.375-2.813C377 257 377 257 379 257Z" fill="#575D66"/>
<path d="M155 316c1.392 4.176-.177 6.135-2 10h-2l-1 5h-2l-.813 1.688c-1.296 2.524-2.612 4.95-4.187 7.312h-2c.879-4.568 2.7-8.7 6-12l.75-3.875c.736-3.317 1.514-4.758 4.375-6.625L155 316Z" fill="#50565C"/>
<path d="M138 336c1.125 3.75 1.125 3.75 0 6h-2l-.332 1.898-.48 2.477-.458 2.46C134 351 134 351 131 353l-.75 2.313c-1.583 3.402-3.563 4.538-6.691 6.476-1.871 1.222-1.871 1.222-2.559 4.211-1.629 1.605-1.629 1.605-3.563 3.188l-1.94 1.605L114 372l-2-1 2.875-2.688c9.48-9.538 16.48-20.707 23.125-32.312Z" fill="#7F838B"/>
<path d="m327 244 1 4h-2l-2 4h-2l-4 8h-3v2c-3 2-3 2-6 2 1.405-4.47 3.593-6.837 7-10l4-4 2.063-2.125c1.937-1.875 1.937-1.875 4.937-3.875z" fill="#42454B"/>
<path d="M417 228h1a8047.264 8047.264 0 0 1 2.246 9.668A275.12 275.12 0 0 1 422 246h2v2l-6-1v4l1.938.813C422 253 422 253 423 256c-4.675-1.202-6.464-3.541-9.082-7.344C413 247 413 247 413 245h2v2l2-1c.102-4.791-.217-9.334-.879-14.082C416 230 416 230 417 228Z" fill="#4A515A"/>
<path d="M432 281v2h4v2l-3 2c-1.134 2.017-1.134 2.017-2 4-1 1-1 1-3.563 1.063L425 292l-2 5c-.833-2.334-1.186-3.534-.25-5.875L424 289l1.438-3.125c1.655-3.046 2.875-4.875 6.562-4.875Z" fill="#54595D"/>
<path d="m184 253 2 1c-.182.534-.364 1.067-.55 1.617-1.944 5.759-3.734 11.553-5.45 17.383h-3v4l-3 1 3-16h3l.313-1.688c.818-2.754 2.146-4.9 3.687-7.312Z" fill="#52565C"/>
<path d="m293 181 6 1c-.25 2.875-.25 2.875-1 6-1.324.685-2.66 1.349-4 2-1.17 1.69-2.119 3.426-3.07 5.246C290 197 290 197 288 200l-2-1c1.002-5.932 2.364-10.073 6-15l1-3Z" fill="#33373F"/>
<path d="M125 291c.688 1.688.688 1.688 1 4-1.375 2.5-1.375 2.5-3 5-.696 2.191-.696 2.191-1 4h3c-1.186 3.375-2.276 5.647-5 8l1-6h-4v5h-3v3h-2c1.505-4.181 3.579-7.74 5.938-11.5l2.09-3.344L122 296a949.674 949.674 0 0 0 3-5Z" fill="#747980"/>
<path d="m167 238 2 1c-1.313 3.438-1.313 3.438-3 7l-3 1c-.733 2.015-.733 2.015-1 4h-4v4l-5 2c.75-4.75.75-4.75 3-7l.438-1.938c1.187-4.354 4.878-5.89 8.562-8.062l2-2Z" fill="#60646C"/>
<path d="m497 249.875 3.504.027c2.832.024 5.664.057 8.496.098v3l-9 2 2-1v-2l-1.941.035c-5.146.054-9.99-.153-15.059-1.035v2h-4v2h-4l-1-3c7.06-2.198 13.644-2.235 21-2.125Z" fill="#868D98"/>
<path d="m199 209 1 2c-5.143 5.571-5.143 5.571-9 6v3h-2v2l5-1c-2.22 2.908-3.93 4.953-7 7-2.688.125-2.688.125-5 0l1-3h2v-2h2l-.125-3.125c.378-3.001.951-3.74 3.383-5.64 2.545-1.494 5.122-2.88 7.742-4.235l1-1Z" fill="#4C4F56"/>
<path d="m164 304 1 2c-.713 1.788-.713 1.788-1.871 3.914-.41.76-.819 1.521-1.24 2.305l-1.327 2.406-1.314 2.43A964.87 964.87 0 0 1 156 323c-.553-2.076-1-3.844-1-6l-6 3c1.687-4.498 3.817-8.729 6-13h1l1 6h2v-3h2l.375-2.438L162 305l2-1Z" fill="#6D737A"/>
<path d="M342 228h2c.042 2.333.04 4.667 0 7l-1 1c-.295 2.841-.523 5.65-.688 8.5l-.144 2.489c-.264 5.734.236 10.472 1.832 16.011.125 3.063.125 3.063 0 5-3.91-7.324-4.29-14.904-4.125-23.063l.027-2.623c.024-2.104.06-4.21.098-6.314l-4 4c.44-4.846 2.745-8.481 6-12Z" fill="#686B73"/>
<path d="m119 373 3 1-2 3h-2l-.805 1.754c-3.542 6.657-9.288 12.2-16.195 15.246-2.834.772-5.012.95-8 1l-3-2h8v-3l1.906-.34c7.694-1.773 11.54-5.329 16.094-11.66a198.32 198.32 0 0 0 3-5Z" fill="#6C747D"/>
<path d="M115 314c1 3 1 3 .063 5.188L114 321h-2l.25 3.5c.035 4.893-1.789 8.368-4.25 12.5-1.097-3.29-.8-4.713 0-8l-5 4c.966-4.51 2.218-7.237 5.563-10.5 2.434-2.497 2.772-3.286 3.437-6.5l3-2Z" fill="#626970"/>
<path d="m171 284 1 2c-.742 2.207-.742 2.207-1.875 4.813-1.166 2.693-2.094 4.994-2.566 7.898-.185.755-.37 1.51-.559 2.289-3.063 1.813-3.063 1.813-6 3 .898-7.786.898-7.786 3-11l2-1 .938-2.938C168 286 168 286 171 284Z" fill="#4F535A"/>
<path d="M271 240c-.75 6.75-.75 6.75-3 9l-1-2-1.426 1.898-1.887 2.477-1.863 2.46C260 256 260 256 257 258h-3v2l-4 1c.125-1.875.125-1.875 1-4l2.875-.938c3.804-1.293 4.31-2.614 6.125-6.062h2l1-4h3v-3c3.444-3 3.444-3 5-3Z" fill="#6A7075"/>
<path d="M463 201h1c2.623 8.007 1.849 15.054-1 23l-3 1v3h-6c.783-1.339 1.577-2.67 2.375-4 .44-.743.882-1.485 1.336-2.25L459 220h2c1.238-3.713 1.356-7.313 1.563-11.188l.13-2.271c.106-1.847.207-3.694.307-5.541Z" fill="#646D76"/>
<path d="M216 208v4c-2.122 2.122-6.088 1.83-9 2-3-.438-3-.438-5-1l-2 4-1-4 2-1 1-3c4.672-1.206 9.215-1.094 14-1Z" fill="#40434C"/>
<path d="m408 322 1 2-.938 2.5c-1.36 4.484-1.776 8.848-1.062 13.5 2.347 3.957 4.592 4.825 9 6v1h-8v-2l-3-1c-.418-2.56-.81-5.12-1.188-7.688l-.365-2.185c-.503-3.554-.604-5.777.877-9.084C406 323 406 323 408 322Z" fill="#4F5760"/>
<path d="m430 338 2 1v6c-1.68 1.484-1.68 1.484-3.875 2.75l-2.18 1.297C424 350 424 350 422 350l1-3h-6c2.38-2.63 4.93-4.245 8-6l2.688-1.75L430 338Z" fill="#51585F"/>
<path d="M194 231c.303 5.148-.134 7.754-3 12a144.124 144.124 0 0 0-1.5 3.75L188 250l-3 1c-.292-4.958-.13-8.028 3-12h2l-.188-2.313c.188-2.687.188-2.687 1.625-4.5C193 231 193 231 194 231Z" fill="#54565A"/>
<path d="M223 162c1.33 3.99.304 5.695-1.09 9.637l-.677 1.937a1023.4 1023.4 0 0 1-2.17 6.113 3637.56 3637.56 0 0 0-1.46 4.15c-1.191 3.392-2.394 6.778-3.603 10.163-1.093-3.279-.9-4.453-.188-7.75l.575-2.664A158.27 158.27 0 0 1 217 174h2l.438-3.875c.268-2.382.484-3.97 1.562-6.125h2v-2Z" fill="#7B7E84"/>
<path d="m212 196 1 2a135.916 135.916 0 0 1-3 7l9 2v2l3 1v1h-5l-1-2c-2.586-.468-2.586-.468-5.563-.625l-3.066-.227L205 208c0-4 0-4 1.375-5.5L208 201l1.063-2.125C210 197 210 197 212 196Z" fill="#6B6D74"/>
<path d="M231 123h4l-.422 2.082c-.407 2.056-.79 4.116-1.156 6.18l-.672 3.425-.64 3.45C231 141 231 141 228.39 142.395L226 143v-3h2l-.125-3.25c.12-3.603.478-4.747 2.125-7.75.383-1.991.726-3.991 1-6Z" fill="#4B4E55"/>
<path d="M349 228h2l-.092 2.184-.408 9.879-.145 3.435c-.224 5.505-.419 10.992-.355 16.502h-1c-3.887-10.204-2.38-21.586 0-32Z" fill="#60656E"/>
<path d="M286 215h3l-1 4h-2l-.383 1.781C285 223 285 223 283.125 226.5c-2.707 5.217-3.87 10.792-5.125 16.5h-1c-.544-7.232.279-12.698 4-19l2-2c.648-2.57.648-2.57 1-5h2v-2Z" fill="#55626A"/>
<path d="M203 132c0 3 0 3-1 6l2-2 3 1a974.752 974.752 0 0 1-3.375 3.938l-1.898 2.214C200 145 200 145 198 146v-3l-6 2v-2h2v-2a203.002 203.002 0 0 1 4.465-3.691c1.84-1.569 3.197-3.302 4.535-5.309Z" fill="#71757A"/>
<path d="M226 219c1.988 2.983 2.362 4.216 2.816 7.64.125.907.25 1.813.377 2.747l.37 2.863.38 2.816c.245 1.812.487 3.624.725 5.436.421 3.17.873 6.334 1.332 9.498h-2c-1.907-4.141-2.608-8.198-3.125-12.688l-.257-2.13c-.616-5.406-.853-10.741-.618-16.182Z" fill="#6C7078"/>
<path d="M221 112c1 2 1 2 1 4l5-4 2 2-2.188 2.125c-1.981 1.965-3.76 4.007-5.5 6.188L219 125h-2l-1 3-1-2c.938-2.125.938-2.125 2-4l2 1-1-3-2-1c0-2 0-2 2.5-4.625L221 112Z" fill="#777A7E"/>
<path d="m418 247 6 1v2h5l-2 2h-3l1 2h12c-1 2-1 2-2.563 2.625-3.592.553-6.793.61-10.437.375l-2-3-3-2c-.688-2.625-.688-2.625-1-5Z" fill="#414851"/>
<path d="M468 222h2c-.11 3.876-.24 7.75-.375 11.625-.03 1.094-.062 2.189-.094 3.316-.194 5.348-.378 10.07-2.531 15.059h-1l.07-3.867c.02-1.67.037-3.339.055-5.008l.05-2.55.02-2.442.032-2.254c-.06-2.124-.06-2.124-2.227-3.879h3l1-10Z" fill="#686E76"/>
<path d="M105 338h2a387.062 387.062 0 0 1-3.473 10.129l-.787 2.197c-.537 1.496-1.076 2.99-1.617 4.485-1.325 3.71-2.496 7.283-3.123 11.189h-1c-.054-1.77-.093-3.541-.125-5.313l-.07-2.988C97 355 97 355 99 352l.875-3.813c.964-4.14 2.47-6.868 5.125-10.187Z" fill="#6B767F"/>
<path d="M408 316c.934 3.01 1.044 3.867 0 7-1.418 1.547-2.913 2.924-4.496 4.3-1.805 2.04-2.402 3.793-3.192 6.387l-.761 2.45L399 338h-1c-.125-6.625-.125-6.625 1-10h2l.313-2.188c1.123-4.595 2.748-7.186 6.687-9.812Z" fill="#42474D"/>
<path d="m185 151 1 3h3v-2h2c-1.408 3.215-3.103 5.322-5.625 7.75l-1.914 1.86L182 163c-1-3-1-3-1-5l-5 2c2.79-3.487 5.252-6.502 9-9Z" fill="#6E7279"/>
<path d="M343 235h1l-.048 1.969c-.063 2.99-.101 5.979-.14 8.969l-.076 3.095c-.08 8.29 1.494 14.629 5.264 21.967l-3-1v-2h-2c-3.118-10.956-3.339-20.756-2-32l1-1Z" fill="#474C53"/>
<path d="M229 141h2c-1.7 7.126-3.58 14.083-6 21h-2v2h-2l-1 2c.281-1.481.575-2.96.875-4.438l.492-2.496L222 157l2-1 .438-3.375c.596-3.841.907-4.191 3.562-6.625.722-2.606.722-2.606 1-5Z" fill="#717379"/>
<path d="M300 185h2a66.14 66.14 0 0 1-12 30h-1c-.255-3.064-.219-4.632 1.375-7.313L292 206h2v-6l2-1c2.207-4.424 3.389-9.108 4-14Z" fill="#676B72"/>
<path d="m484 151 1 2-1.875.75c-2.255 1.062-2.255 1.062-3.063 3.188-1.454 2.823-3.237 3.72-6.062 5.062l-2-1 1-5 3-1 1-3c2.463-1.231 4.28-1.072 7-1Z" fill="#3D464F"/>
<path d="m244 102-1 9h-2v5l-5 2v-6l2-1 .938-2.875C241.02 102 241.02 102 244 102Z" fill="#454951"/>
<path d="M271 227h2v2h-2l-.445 1.828c-1.66 5.91-3.196 7.91-8.555 11.172-.962 2.628-.962 2.628-1 5l-6 1 2-4h2l.82-1.79c1.164-2.18 2.401-3.76 4.055-5.585 2.005-2.264 3.765-4.503 5.375-7.063L271 227Z" fill="#73777D"/>
<path d="M461.75 229.688 464 230c-5.184 6.138-10.577 12.073-16 18l-2-1 1-3h3l.313-1.938L451 240l3-1 .438-1.75c1.034-4.136 2.96-7.068 7.312-7.563Z" fill="#5E626A"/>
<path d="M448 302h1c-.621 12.231-.621 12.231-4 16h-3l-1 4h-2c1.68-4.368 3.633-8.582 5.625-12.813l.984-2.1c.796-1.696 1.593-3.391 2.391-5.087Z" fill="#60666C"/>
<path d="M474 170h2l-.402 2.79A327.332 327.332 0 0 0 473 199c-2-2-2-2-2.188-5.75.043-1.75.109-3.5.188-5.25l.16-3.566c.618-10.776.618-10.776 2.84-14.434Z" fill="#6C737A"/>
<path d="M324 242c0 3.545-.827 4.702-2.75 7.625l-1.547 2.414c-1.942 2.236-2.914 2.34-5.703 2.961l-1 3c-3.063 1.188-3.063 1.188-6 2 1.375-2 1.375-2 3-4h2l.68-1.672c1.724-3.04 3.945-5.142 6.445-7.578l2.758-2.703L324 242Z" fill="#767985"/>
<path d="m308 265c-1.468 6.485-1.468 6.485-4 8.938-2 1.062-2 1.062-4 1.062l1-5-3-1c2.6-3.011 6.06-5.97 10-4z" fill="#494D55"/>
<path d="M177 278c1 3 1 3-.328 6.145-.63 1.227-1.272 2.45-1.922 3.668l-.95 1.83a658.31 658.31 0 0 1-1.88 3.598c-1.343 2.568-2.632 5.163-3.92 7.759h-1c-.3-4.285.676-7.207 2.375-11.125l1.336-3.133C172 284 172 284 174 281h2l1-3Z" fill="#737780"/>
<path d="m339 223c0 6.747-5.533 14.139-10 19h-4c1.29-2.799 2.688-4.966 4.75-7.25 3.309-3.757 6.293-7.713 9.25-11.75z" fill="#72757B"/>
<path d="M360.25 187.625 363 188v2l-4 1v2l-3 2-1.5 3.563L353 202l-3 1c4.309-14.69 4.309-14.69 10.25-15.375Z" fill="#545A64"/>
<path d="M295.563 178.938 299 179v2h2v2l-8-2-.313 2.25c-.741 2.967-1.75 4.425-3.687 6.75l-2 3c-1-3-1-3-.04-5.445l1.415-2.68 1.398-2.695c1.785-3.172 1.785-3.172 5.79-3.243Z" fill="#555B65"/>
<path d="M349 203h1c.25 7.625.25 7.625-2 11l-.5 3.563C347 221 347 221 345 223c-.023 2.45-.023 2.45.375 5.125l.336 2.758L346 233l-2 1c-.389-1.789-.76-3.581-1.125-5.375l-.633-3.023L342 223l2-2 .438-3.25c.578-3.86 1.773-6.322 3.562-9.75.7-2.736.7-2.736 1-5Z" fill="#3F4249"/>
<path d="m133 196-2 9a88.406 88.406 0 0 1-5 1c-1-1-1-1-1.438-3.313.438-2.687.438-2.687 3.313-5C131 196 131 196 133 196Z" fill="#5D666E"/>
<path d="M144 267h2l-1 6h-2l-.875 2.375C141 278 141 278 139 280h-2l-2 1c.25-2.375.25-2.375 1-5 1.325-.684 2.659-1.35 4-2 1.283-2.538 1.283-2.538 2-5h2v-2Z" fill="#585C64"/>
<path d="m347 215 4 1c-.492 7.385-.492 7.385-3.063 10.5L346 228l-2-2c.25-1.688.25-1.688 1-4l1.063-3.75L347 215Z" fill="#30343A"/>
<path d="M401 346c2.23 1.074 4.223 2.158 6.25 3.594 3.39 1.733 5.318 1.546 9.063 1.094l3.238-.364L422 350c-4.148 3.49-7.682 3.99-13 4-3.68-.8-4.63-1.477-6.813-4.563C401 347 401 347 401 346Z" fill="#525765"/>
<path d="M424 190h1c-.23 8.7-.52 16.31-5 24l-2-1c.455-2.043.914-4.084 1.375-6.125l.773-3.445c.799-3.215 1.773-6.3 2.852-9.43.35-1.33.691-2.66 1-4Z" fill="#5B6971"/>
<path d="M471 168h2c.32 6.717-.52 11.757-3 18-2.317-3.476-2.165-4.415-1.75-8.438l.266-2.87c.466-2.594 1.176-4.424 2.484-6.692Z" fill="#434A52"/>
<path d="M379 258h4v2h-2l.313 2.75C381 266 381 266 378.5 268.375L376 270c-.687-2.49-1-4.379-1-7h2l2-5Z" fill="#414B53"/>
<path d="M395 236c.832 2.328 1.122 3.611.375 6-1.8 2.617-3.814 4.107-6.375 6l-4.313 3.25A3047.72 3047.72 0 0 1 381 254c1.85-3.94 4.076-6.783 7-10h2v-2h2l.938-2.438C394 237 394 237 395 236Z" fill="#6E7479"/>
<path d="m152 181 5 4-7 6-2-1 4-2-1-3-2.188 1.375c-2.56 1.48-5.045 2.597-7.812 3.625 3.434-3.636 6.797-6.361 11-9z" fill="#7A8189"/>
<path d="M96 367h1v17h6c-2 2-2 2-4.625 2.125L96 386c-1.938-3.26-2.27-5.729-2.25-9.5l-.016-2.844c.27-2.696.893-4.345 2.266-6.656Z" fill="#656E76"/>
<path d="m477 253v2c-2.5 1.625-2.5 1.625-5 3l2 3-4 1v-4l-5 1v-2h2v-2c3.402-2.094 6.053-2.18 10-2z" fill="#6C7178"/>
<path d="m184 244h1l1 6h2l-1 4h-3l-4 8h-2c1.765-6.107 3.696-12.074 6-18z" fill="#696B73"/>
<path d="M263 243h2l-.938 1.813c-1.164 2.277-1.164 2.277-2.062 5.187h-2l-.938 2.438C258 255 258 255 257 256c-1.666.04-3.334.043-5 0 1.088-3.263 1.778-3.872 4.375-5.938 2.644-2.168 4.603-4.296 6.625-7.062Z" fill="#3F4248"/>
<path d="M154 323c1 3 1 3 .211 4.81l-1.266 1.983-1.363 2.158-1.457 2.236-1.434 2.272c-2.55 3.993-2.55 3.993-3.691 5.541h-1c-.359-3.855-.275-5.578 1.875-8.875L148 331h2l1-5h2l1-3Z" fill="#737A80"/>
<path d="M414 236h3c.778 3.406 1.1 6.508 1 10l-3 1v-2h-2c-.098-6.152-.098-6.152 0-8l1-1Z" fill="#383E46"/>
<path d="M124 360c1.044 3.133.934 3.99 0 7l3-1c-1.25 3.653-1.671 4.78-5 7l1-6-2.375 1.438c-1.514.901-3.049 1.774-4.625 2.562.813-1.938.813-1.938 2-4l3-1c.59-1.946.59-1.946 1-4l2-2Z" fill="#60666F"/>
<path d="M221 146h1c.34 5.566-.663 8.98-3 14-1.059 2.981-2.037 5.987-3 9-1.347-4.369-.254-7.73 1-12l.77-2.707c2.071-7.134 2.071-7.134 3.23-8.293Z" fill="#6A6E74"/>
<path d="m102 339a438.12 438.12 0 0 1-2 13l-4 1c0.61-14 0.61-14 6-14z" fill="#464E55"/>
<path d="m418 302 3 1-1.39 2.16c-3.34 5.213-6.604 10.428-9.61 15.84l-2-2 2-4h2l1-6h2v-3h2l1-4z" fill="#787D82"/>
<path d="m457 259c1.125 3.75 1.125 3.75 0 6h-3l-2 3-6-1c3.277-3.67 6.715-5.693 11-8z" fill="#686E74"/>
<path d="M492 252h10v2c-3.285 2.19-4.831 2.353-8.688 2.625l-3.011.227L488 257l1-2h3v-3Z" fill="#71787E"/>
<path d="m358 205 2 1-1.242 2.273c-3.438 6.53-5.817 12.393-6.758 19.727h-1c-.484-7.742.611-13.417 5-20h2v-3Z" fill="#60666D"/>
<path d="M415 188c1.598 4.017.362 7.522-.75 11.5l-.516 2.012c-1.015 3.739-2.152 6.579-4.734 9.488.655-8.12 2.163-15.74 6-23Z" fill="#606770"/>
<path d="m230 107 1 4-1.75.75c-2.553 1.418-4.228 3.16-6.25 5.25l-2 1c.313-3.375.313-3.375 1-7 3.228-2.152 4.284-2.2 8-2v-2Z" fill="#595D63"/>
<path d="m454.688 267.813 2.449.082L459 268l-2 5-1-2-9 5c0-5 0-5 1.207-6.8 2.31-1.546 3.726-1.507 6.48-1.387Z" fill="#606569"/>
<path d="M306 260c.625 1.875.625 1.875 1 4-2 2-2 2-4.25 2.875-2.928 1.075-2.928 1.075-5.813 3.313C294 272 294 272 291.817 271.613L290 271a488379439.73 488379439.73 0 0 1 6.738-3.809C299 266 299 266 302 265v-2c2-1.625 2-1.625 4-3Z" fill="#6C747B"/>
<path d="M417 228h1l.621 2.703.817 3.547.808 3.516c.564 2.417 1.14 4.828 1.754 7.234-1.875-.563-1.875-.563-4-2-1.692-4.4-2.328-8.303-2-13l1-2Z" fill="#626970"/>
<path d="m453 228 1 2-1.938 2.75c-2.148 2.916-2.148 2.916-2.406 5.344C449 240 449 240 446.934 241.047l-2.497.703-2.503.734L440 243a1462.101 1462.101 0 0 1 13-15Z" fill="#71777F"/>
<path d="m466 230c1.04 3.38 1.08 6.478 1 10l-4 1 1-6-3 1v-4l5-2z" fill="#4C5156"/>
<path d="M493 155c2.407 3.61 2.298 6.27 2.25 10.438l.016 3.996c-.247 3.316-.713 4.76-2.266 7.566a2243.7 2243.7 0 0 1-.563-9.875l-.17-2.84-.146-2.715-.143-2.507C492 157 492 157 493 155Z" fill="#777C84"/>
<path d="M453 284h1c.082 2.062.14 4.125.188 6.188l.105 3.48c-.319 3.624-1.074 5.478-3.293 8.332h-2l4-18Z" fill="#848F92"/>
<path d="m181 157 2 2-3 2.375-3 2.625v2h-5c.364-2.704.681-3.744 2.848-5.484l2.214-1.266 2.223-1.297L181 157Z" fill="#52555D"/>
<path d="M97 339h1c-.163 7.904-1.59 13.41-6 20-1.028-3.137-.994-4.832.215-7.89l.83-2.15.892-2.21.881-2.258A674.437 674.437 0 0 1 97 339Z" fill="#737981"/>
<path d="M184 259h1c.27 4.725-.508 7.979-2.375 12.313l-1.336 3.175C180 277 180 277 178 278c2.89-13.818 2.89-13.818 6-19Z" fill="#747880"/>
<path d="M467 260v3h-2v2l-7 2 1-6c2.763-.597 5.16-1 8-1Z" fill="#3F444A"/>
<path d="M460 240h1c.196 2.228.381 4.458.563 6.688l.316 3.761c.106 3.11-.107 5.56-.879 8.551l-3-1 2-18Z" fill="#686E77"/>
<path d="m224 251 6 2v8l4 2c-3 0-3 0-5.563-2.25-2.996-3.38-4.437-5.22-4.437-9.75z" fill="#616870"/>
<path d="M259 248c-2.892 4.7-2.892 4.7-6.047 5.555-1.976.231-3.966.346-5.953.445l1-2h2v-2c3.435-2.29 4.985-2.178 9-2Z" fill="#595D64"/>
<path d="M408 213h1c.054 1.958.093 3.916.125 5.875l.07 3.305C409 225 409 225 407 227l-3 1-1 2h-2c1.022-2.98 1.979-4.976 4.063-7.375 2.371-3.213 2.629-5.693 2.937-9.625Z" fill="#666C72"/>
<path d="m151 184 2 1c-1.142 3.426-2.247 4.706-5 7-2.75.75-2.75.75-5 1v-4c1.68-1.52 1.68-1.52 3.875-2.813l2.18-1.332L151 184Z" fill="#464C55"/>
<path d="M408 305h1c.348 4.877-.583 7.77-3 12h-4c1.566-4.308 3.683-8.062 6-12Z" fill="#72777F"/>
<path d="M344 268h2l1 2a588.838 588.838 0 0 0 7 3l2 2c2.323.4 4.657.74 7 1v1c-6.284.449-10.8-.259-16-4-2-2.75-2-2.75-3-5Z" fill="#5A6E76"/>
<path d="m496 250-1 2-10-1v2h-4v2h-4l-1-3c6.759-2.08 12.956-2.211 20-2z" fill="#7F868D"/>
<path d="M215 119c2.125.375 2.125.375 4 1v3h-2l-2 6h-3c.75-7.75.75-7.75 3-10Z" fill="#5C5E64"/>
<path d="m243 93 2 1-3 7h-5l-1-3h2l.813-1.938C240 94 240 94 243 93Z" fill="#4B4F56"/>
<path d="M180 224c0 3.522-.567 4.058-2.813 6.625l-1.582 1.852C174 234 174 234 171 235l-1 2h-2c1.55-3.884 4.005-6.03 7.125-8.75l2.758-2.422L180 224Z" fill="#797F86"/>
<path d="m476 208 3 1-1.46 2.082-1.915 2.73-1.898 2.708A330.128 330.128 0 0 0 470 222v-8l3-1v-2c1.5-1.625 1.5-1.625 3-3Z" fill="#6F767E"/>
<path d="m204 212 3 2-2 2-1.438 3.563L202 223l-3 1c.449-1.815.91-3.627 1.375-5.438l.773-3.058C202 213 202 213 204 212Z" fill="#646770"/>
<path d="m468 188c2.328 3.638 2.236 6.76 2 11l-1 2h-2c-1-7.625-1-7.625-1-11l2-2z" fill="#444B53"/>
<path d="M446 267c-.628 2.929-1.586 5.361-3 8l-5-1v2l-3-1a819.413 819.413 0 0 1 4.375-4l2.46-2.25C444 267 444 267 446 267Z" fill="#6E7277"/>
<path d="M346 243h1l.148 1.941c.357 4.125.72 8.039 1.977 11.996C350 260 350 260 349 263c-2.677-2.67-3.003-4.037-3.293-7.89.02-1.454.055-2.907.106-4.36l.04-2.258c.036-1.83.09-3.662.147-5.492Z" fill="#42484F"/>
<path d="m268 237 2 4-4 2v3l-2-1 1-2-4 2c.125-1.75.125-1.75 1-4 3.063-2.25 3.063-2.25 6-4Z" fill="#505156"/>
<path d="m177 229 2 1-1 6-6 1v2h-2c.188-2.313.188-2.313 1-5 2.5-1.688 2.5-1.688 5-3l1-2Z" fill="#4F5359"/>
<path d="m162 177-5 7-4-1c.188-1.813.188-1.813 1-4 4.256-3.248 4.256-3.248 8-2Z" fill="#697178"/>
<path d="m437 330 3 1-1 5-1.938.375L435 337l-1 2c-.75-1.688-.75-1.688-1-4 1.938-2.75 1.938-2.75 4-5Z" fill="#494E53"/>
<path d="M148 320c1 2 1 2 .375 5.313-1.688 4.527-4.001 7.5-8.375 9.687 1.373-3.699 3.064-6.951 5.125-10.313l1.633-2.675L148 320Z" fill="#7B8188"/>
<path d="m418 291 2 1c-.556 3.568-1.686 4.922-4.5 7.125-2.688 2.074-2.688 2.074-4.5 4.875h-2c1.49-3.283 3.386-5.93 5.625-8.75l1.914-2.422L418 291Z" fill="#747B80"/>
<path d="M176 265h1c-.596 4.869-1.57 9.328-3 14l-4 1c1.599-5.196 3.741-10.066 6-15Z" fill="#74777E"/>
<path d="M206 190h1c.027 1.458.046 2.917.063 4.375l.035 2.46C207 199 207 199 206 201h-2l-1 6h-2c.782-4.85 2.405-9.372 4-14l1-3Z" fill="#6E7077"/>
<path d="M491 159c1.033 2.788 1.045 3.868.063 6.75L490 168h2v5h-3a268.49 268.49 0 0 1-.688-5.313l-.386-2.988C488 162 488 162 489.48 160.145L491 159Z" fill="#444B52"/>
<path d="M326 248h3l-2 4h-2l-.688 1.75c-1.642 2.816-3.707 4.33-6.312 6.25.474-4.267 2.997-6.143 6-9l2-3Z" fill="#577075"/>
<path d="M393 246v6l-5 2c-.75-1.75-.75-1.75-1-4 3.222-4 3.222-4 6-4Z" fill="#40444A"/>
<path d="M220 230c3.553 3.62 3.539 7.438 3.688 12.25l.103 2.258c.082 1.83.147 3.661.209 5.492-2.138-3.207-2.534-5.116-3.125-8.875l-.508-3.117A53.412 53.412 0 0 1 220 230Z" fill="#5F6A73"/>
<path d="M482 193c0 3.929-1.003 7.199-2 11l-4 1c.509-4.374 1.43-7.401 4-11l2-1Z" fill="#4C5259"/>
<path d="m142 190 2 2 3 1-3 1v2l-3 1c-2-1-2-1-3-3l-2-1c3.75-3 3.75-3 6-3z" fill="#646C76"/>
<path d="M105 324c.625 1.875.625 1.875 1 4l-2 2c-.673 1.967-.673 1.967-1.125 4.125L102 338l-4 1c1.545-5.48 4.155-10.114 7-15Z" fill="#7C8288"/>
<path d="M157 248h4v3h-3v4l-5 2c.523-3.767 1.274-6.274 4-9Z" fill="#50545C"/>
<path d="M201 217c-.523 2.763-1.109 5.326-2 8l-3 1-1-7c3-2 3-2 6-2Z" fill="#4D5055"/>
<path d="m467 216h2v6h-2l-1 3h-3c1.75-6.75 1.75-6.75 4-9z" fill="#394047"/>
<path d="M286 192h1v7l3-2c-.6 3.356-1.846 5.378-4 8l-1-2h-2c.888-3.699 1.946-7.346 3-11Z" fill="#404349"/>
<path d="m430 338 2 1c-4.802 4.777-8.07 7.856-15 8 2.38-2.63 4.93-4.245 8-6l2.688-1.75L430 338Z" fill="#454C54"/>
<path d="M144 263c1.125 3.75 1.125 3.75 0 6h-2l-.75 2.375c-1.404 2.948-2.257 3.527-5.25 4.625 1.468-3.107 3.2-5.905 5.125-8.75l1.633-2.422L144 263Z" fill="#7B7F88"/>
<path d="M408 225c2 2 2 2 2 6l-1.813.25c-2.784.955-3.62 2.321-5.187 4.75 0-4.508.594-6.485 3.625-9.75L408 225Z" fill="#42484E"/>
<path d="M279 207h1c.543 6.655-.227 10.458-4 16-1.498-3.882-.431-6.434.938-10.25l1.152-3.266L279 207Z" fill="#60666F"/>
<path d="M491 178h2c-.568 5.54-2.629 10.037-5 15-1.671-5.511.886-9.867 3-15Z" fill="#737880"/>
<path d="M492 160h1v18h-2l1-10h-2c.523-2.763 1.109-5.326 2-8Z" fill="#575E66"/>
<path d="M125 296h2v7l-5 1c.547-3.375 1.055-5.082 3-8Z" fill="#585D64"/>
<path d="M467 171c1.46 2.647 2 3.894 2 7h-2l1 9-3 1c.142-1.896.289-3.792.438-5.688.08-1.055.162-2.111.246-3.199.28-2.764.718-5.402 1.316-8.113Z" fill="#777E85"/>
<path d="m436 325 1 3a95.29 95.29 0 0 1-4 5l-.938 2.25C431 337 431 337 428.375 337.75L426 338c3.267-4.389 6.549-8.753 10-13Z" fill="#7A8187"/>
<path d="M194 231v7l-3 1v2h-2c.613-6.5.613-6.5 2.5-8.938C193 231 193 231 194 231Z" fill="#4E4F55"/>
<path d="m199 209 1 2c-3.822 4.4-6.474 5.808-12 7v-2c2.152-1.473 2.152-1.473 4.938-3.063 3.22-1.712 3.22-1.712 6.062-3.937z" fill="#74787F"/>
<path d="M171 284c1 2 1 2 .441 3.945l-.879 2.18-.87 2.195L169 294h-2c-.25-3.313-.25-3.313 0-7 2-1.938 2-1.938 4-3Z" fill="#4D5157"/>
<path d="m259 252 1 4c-3 2-3 2-6 2v2l-4 1c.125-1.875.125-1.875 1-4a126.53 126.53 0 0 1 6-2l2-3Z" fill="#63696F"/>
<path d="m232 250 1.313 2c4.205 3.13 8.614 2.315 13.687 2v2c-2.312.027-4.625.046-6.938.063l-3.902.035C233 256 233 256 232 255a99.984 99.984 0 0 1 0-5Z" fill="#6F757C"/>
<path d="M191 229c1.25 2.5.867 3.34.188 6l-.52 2.125c-1.038 2.914-3.508 4.715-5.668 6.875 2.89-10.558 2.89-10.558 6-15Z" fill="#6E737A"/>
<path d="m274 223c1.063 1.813 1.063 1.813 2 4-1 3-1 3-4 5-1.205 2.552-1.205 2.552-2 5l-2-1 3-7h2l1-6z" fill="#5A5E65"/>
<path d="M364 191h1c-.467 5.414-1.243 9.205-4 14h-1c.114-1.48.241-2.96.375-4.438.07-.823.14-1.647.21-2.496L361 196l2-1c.652-2.025.652-2.025 1-4Z" fill="#6C7379"/>
<path d="m186 149h7l-1 4-3-1v2h-3v-5z" fill="#5A5E64"/>
<path d="m480 189 2 3c-.76 1.319-1.533 2.63-2.313 3.938l-1.3 2.214C477 200 477 200 474 201c1.566-4.308 3.683-8.062 6-12Z" fill="#747A80"/>
<path d="M214 169c2.565 2.565 2.54 4.477 3 8h-3v2h-2c.537-3.377 1.11-6.697 2-10Z" fill="#6C6F73"/>
<path d="m98 390h5l-2 1v3c-7.625 1.25-7.625 1.25-11-1h8v-3z" fill="#585F72"/>
<path d="m140 342 1 4h-2v4l-4 2c.432-4.752 1.328-6.92 5-10Z" fill="#484E55"/>
<path d="m429 280 1 2-1.813 1.688c-2.287 2.234-2.287 2.234-3.75 5.062L423 291h-3v-2h2l.688-1.688c1.671-2.944 3.865-4.994 6.312-7.312Z" fill="#73797F"/>
<path d="M324 242c0 3.545-.827 4.702-2.75 7.625l-1.547 2.414c-1.888 2.175-2.894 2.607-5.703 2.961l2.313-2.688c2.2-2.63 3.957-5.347 5.687-8.312l2-2Z" fill="#64676E"/>
<path d="m400 236v6h-2v3l-4-1c3.2-8 3.2-8 6-8z" fill="#464A4F"/>
<path d="m407 230 3 1-1 4h-2a90.488 90.488 0 0 0-4 4c.53-3.821 1.497-6.062 4-9Z" fill="#696F76"/>
<path d="M285 192h1c-.497 4.973-1.553 8.638-4 13h-2a931.95 931.95 0 0 1 1.375-4.25l.773-2.39c.804-2.226 1.75-4.27 2.852-6.36Z" fill="#63686E"/>
<path d="M484 195h2c-1.413 4.827-3.43 8.716-6 13-.981-3.053-.981-4.947 0-8h3l1-5Z" fill="#7B808A"/>
<path d="m484 151 1 2-1.875.813C480.7 154.956 480.7 154.956 479 158v-3l-3 1c.375-1.938.375-1.938 1-4 2.463-1.231 4.28-1.072 7-1Z" fill="#454E57"/>
<path d="M226 144c1.214 3.642.667 4.332-.938 7.688l-1.152 2.449L223 156h-1c-.333-4.245-.439-6.355 2-9.938l2-2.062Z" fill="#4B4C51"/>
<path d="m212 196 1 2c-.777 1.945-.777 1.945-1.938 4.125l-1.152 2.195L209 206l-2-1c1.625-6.75 1.625-6.75 5-9Z" fill="#787B80"/>
<path d="M230 123h1c.176 3.875.283 6.755-2 10l-3 1c.475-1.647.955-3.293 1.438-4.938l.808-2.777C229 124 229 124 230 123Z" fill="#6E7177"/>
<path d="M234 127h2c-.782 4.847-2.398 9.377-4 14h-1c-.407-5.42.96-9.07 3-14Z" fill="#73767D"/>
<path d="M115 314c1 3 1 3 .063 5.188L114 321h-2l-1 3-2-1c2.625-6.75 2.625-6.75 6-9Z" fill="#51555D"/>
<path d="M161 305v5h-2v3l-3 1c.613-5.516.613-5.516 2.5-7.875C160 305 160 305 161 305Z" fill="#4C5056"/>
<path d="m446 267 4 1c-1 3-1 3-3 6l-3-1 2-6z" fill="#4A4F54"/>
<path d="m340 228 1 2c-.926 1.945-.926 1.945-2.313 4.125l-1.363 2.195L336 238h-2l2-7h2v-2l2-1Z" fill="#434449"/>
<path d="M286 215h3l-1 4h-2l-.375 1.875C285 223 285 223 283 225l1-8h2v-2Z" fill="#637176"/>
<path d="M354 192h1c.366 6.35.366 6.35-1.375 9.438C352 203 352 203 350 203c.477-1.459.957-2.917 1.438-4.375l.808-2.46C353 194 353 194 354 192Z" fill="#5C636B"/>
<path d="M443 325h2c-.48 4.314-1.746 6.166-5 9-.75-1.688-.75-1.688-1-4 1.813-2.75 1.813-2.75 4-5Z" fill="#676D72"/>
<path d="m144 267h2l-1 6h-2v2h-2l1-6h2v-2z" fill="#4C5158"/>
<path d="m191 221 3 1-7 6-1-3c1.634-1.708 2.87-2.935 5-4z" fill="#60626A"/>
<path d="m169 169 2 2-3 3v-2l-3-1 4-2zm-6 3 4 1v2h-4v-3z" fill="#51575E"/>
<path d="m237 95 2 1-1 2h-2l1 2 2-1v3l-6 2 2-7h2v-2z" fill="#5C636A"/>
<path d="m447 242c-3 2-3 2-6 2v2h-5c2.857-4.285 6.028-5.842 11-4z" fill="#585E67"/>
<path d="M228 240c2.797 2.068 3.027 3.144 3.688 6.688L232 250h-2c-1.604-3.508-2.22-6.144-2-10Z" fill="#62656E"/>
<path d="m209 195 2 1-4 8-3-1v-2h2l.938-1.875L209 195Z" fill="#595A5F"/>
<path d="m464 191 3 1-1 9h-2v-10z" fill="#767C82"/>
<path d="M214 177h2c-.25 2.875-.25 2.875-1 6-2.063 1.375-2.063 1.375-4 2l1-6h2v-2Z" fill="#535559"/>
<path d="m231 123h4l-1 5-3 1v-6z" fill="#47494F"/>
<path d="M239 116h2c-.45 1.46-.91 2.918-1.375 4.375l-.773 2.46C238 125 238 125 236 127c-.125-5.75-.125-5.75 1-8h2v-3Z" fill="#6B6F75"/>
<path d="m446 318h4c-1.75 5.75-1.75 5.75-4 8a176.79 176.79 0 0 1-1-7l1-1z" fill="#666A6E"/>
<path d="m443 313c2 2 2 2 2 5h-3l-1 4h-2c1.199-3.083 2.477-6.063 4-9z" fill="#777E87"/>
<path d="M455 273c2 2 2 2 2.188 5.5C457 282 457 282 456 284h-2l1-11Z" fill="#6E757C"/>
<path d="M151 254h1c.313 2.313.313 2.313 0 5-2.375 1.75-2.375 1.75-5 3l-2 1c1.527-3.436 3.55-6.155 6-9Z" fill="#7E8087"/>
<path d="M349 203h1c.615 7.262.615 7.262-2.5 11l-2.5 2 .875-2.563c1.133-3.46 2.143-6.93 3.125-10.437Z" fill="#5F6670"/>
<path d="M292 192h2l-1 6-3 1c-.125-2.375-.125-2.375 0-5l2-2Z" fill="#4C4F54"/>
<path d="m153 183 4 2-7 6-2-1 1.938-.688c2.334-1.165 2.334-1.165 2.812-3.937L153 183Z" fill="#71777E"/>
<path d="m180 160 1 4-5 4-1-4 5-4z" fill="#62666B"/>
<path d="m424 347-2 1v2l-7-1v-2c5.625-1.125 5.625-1.125 9 0z" fill="#3B414A"/>
<path d="M401 317h1c.201 3.625-.142 5.865-2 9h-2l-1 3c.665-4.389 2.188-7.981 4-12Z" fill="#81868D"/>
<path d="m117 306h4l-1 6h-3v-6z" fill="#575A63"/>
<path d="M117 304c1.333 2.667.671 4.167 0 7h-3v3h-2c1.335-3.594 2.96-6.755 5-10Z" fill="#878C93"/>
<path d="m377 257h2l-1 4-7 2 6-6z" fill="#686E75"/>
<path d="m276 235h1v8l-5 2v-4h4v-6z" fill="#42454A"/>
<path d="m454 228 3 1-7 9-1-2c.996-1.945.996-1.945 2.438-4.125l1.433-2.195L454 228Z" fill="#535860"/>
<path d="m470 199h2v2h2v4h-4v-6z" fill="#70757B"/>
<path d="M221 146h1c.25 6.625.25 6.625-2 10h-2c.308-1.48.622-2.96.938-4.438l.527-2.496C220 147 220 147 221 146Z" fill="#787B84"/>
<path d="M481 143c4.17.936 5.584 1.376 8 5h-4v-2l-7-1 3-2Z" fill="#77808A"/>
<path d="M206 131c1 3 1 3 1 5l-2 2h-3c.564-3.27 1.5-4.826 4-7Z" fill="#55595D"/>
<path d="m97 355h3l-2 11h-1v-11z" fill="#7C8289"/>
<path d="M142 342h2c-1.335 3.594-2.96 6.755-5 10-1.245-2.49-.777-3.41 0-6h2l1-4Z" fill="#7B8087"/>
<path d="m451 295h2v5l-4 2 2-7z" fill="#7A8086"/>
<path d="M417 228h1l1 9-3-1c-.125-5.75-.125-5.75 1-8Z" fill="#696F76"/>
<path d="M416 214h3l-1 3a165.577 165.577 0 0 0-.563 5.688l-.253 3.011L417 228h-1v-14Z" fill="#525B65"/>
<path d="M419 201h2l-1 9c-2-3-2-3-1.625-6.188L419 201Z" fill="#383E46"/>
<path d="m190 145 4 1v5l-1-2h-5v-2h2v-2z" fill="#75787E"/>
<path d="m143 331 1 2c-.777 1.727-.777 1.727-1.938 3.625-.68 1.114-1.36 2.228-2.062 3.375h-1c-.25-2.25-.25-2.25 0-5 2-2.313 2-2.313 4-4Z" fill="#60656E"/>
<path d="m438 327 2 1a90.488 90.488 0 0 1-4 4h-2v2l-2-1c3.75-4.875 3.75-4.875 6-6z" fill="#5B6066"/>
<path d="M448 302h1c.313 2.75.313 2.75 0 6-2.5 2.375-2.5 2.375-5 4 1.11-3.487 2.263-6.775 4-10Z" fill="#82878E"/>
<path d="M456 297h2c-.75 6.625-.75 6.625-3 10-.125-6.625-.125-6.625 1-10Z" fill="#72767B"/>
<path d="m166 292 1 2 2 1-2 6h-1v-5h-2v-3l2-1z" fill="#575C64"/>
<path d="m430 281 2 1-1 2h-2l-1 3-3-1 5-5z" fill="#575E63"/>
<path d="m268 270 3 1v3l4 2-2 2c-5-5.75-5-5.75-5-8z" fill="#575D69"/>
<path d="m496 252h6v2l-3 2-3-1v-3z" fill="#767E86"/>
<path d="M344 216h1c.125 2.375.125 2.375 0 5l-2 2-3-1a250 250 0 0 1 4-6Z" fill="#656A6F"/>
<path d="M300 185h2a440.837 440.837 0 0 1-.875 4.938l-.492 2.777L300 195l-2 1 .438-2.125c.577-2.95 1.079-5.908 1.562-8.875Z" fill="#5E646C"/>
<path d="M210 181c1.534 3.069.55 5.7 0 9h-3l3-9Z" fill="#797D83"/>
<path d="m488 165h1v12l-3-1 2-11z" fill="#51595F"/>
<path d="m226 112 3 2-6 5-1-3 4-4z" fill="#6E7277"/>
<path d="m229 104 3 1-2 4h-4c1.875-3.875 1.875-3.875 3-5z" fill="#65686F"/>
<path d="M155 307h1c-.492 6.523-.492 6.523-3.063 8.938L151 317c1.11-3.487 2.263-6.775 4-10Z" fill="#7F838A"/>
<path d="m424 289 2 1a101.17 101.17 0 0 1-2 6l-2 1c-0.125-2.875-0.125-2.875 0-6l2-2z" fill="#4A4D53"/>
<path d="m275 263c1.414 2.639 2.372 5.071 3 8h-3a176.79 176.79 0 0 1-1-7l1-1z" fill="#61656E"/>
<path d="M375.375 262.313 377 263c-5.415 3.077-5.415 3.077-8.375 2.688L367 265c5.415-3.077 5.415-3.077 8.375-2.688Z" fill="#50565D"/>
<path d="M416 250a56.54 56.54 0 0 1 7 4v2c-4.677-1.477-4.677-1.477-6.313-4.125L416 250Z" fill="#5B626C"/>
<path d="M450 241h2c-.564 3.27-1.5 4.826-4 7l-2-1 1-3h3v-3Z" fill="#6A6E74"/>
<path d="m186 218h2l-1 5-5 1a125.02 125.02 0 0 1 4-6z" fill="#6C7078"/>
<path d="m151 184 2 1c-1.23 3.688-2.939 4.724-6 7 .498-3.688 1.1-5.605 4-8Z" fill="#4E555E"/>
<path d="m159 176 3 1c-1.313 2-1.313 2-3 4h-3v-3l3-2z" fill="#4F535D"/>
<path d="M486 168c2 3 2 3 1.758 5.043L486 179h-2l2-11Z" fill="#6F7A80"/>
</svg>
